<?xml version="1.0" encoding="UTF-8"?>
<svg width="246px" height="37px" viewBox="0 0 246 37" version="1.1" xmlns="http://www.w3.org/2000/svg" xmlns:xlink="http://www.w3.org/1999/xlink">
    <!-- Generator: Sketch 52.1 (67048) - http://www.bohemiancoding.com/sketch -->
    <title>geritfooter-HRKlogo</title>
    <desc>Created with Sketch.</desc>
    <g id="Symbols" stroke="none" stroke-width="1" fill="none" fill-rule="evenodd">
        <g id="Footer-Gerit-2" transform="translate(-308.000000, -238.000000)">
            <g id="geritfooter-HRKlogo" transform="translate(308.000000, 235.000000)">
                <g id="HRK" transform="translate(1.000000, 24.000000)" fill="#3F3F3F">
                    <g id="Group">
                        <polyline id="Fill-1" points="9.1247561 15.5076923 9.1247561 2.38030769 6.06763415 2.38030769 6.06763415 7.53723077 3.18141463 7.53723077 3.18141463 2.38030769 0.142219512 2.38030769 0.142219512 15.5076923 3.18141463 15.5076923 3.18141463 9.99753846 6.06763415 9.99753846 6.06763415 15.5076923 9.1247561 15.5076923"></polyline>
                        <path d="M20.9743902,15.5076923 L19.6358537,11.04 C19.2534146,9.76123077 18.8148049,9.22953846 17.8969512,8.97353846 C19.5402439,8.63876923 20.4389756,7.45846154 20.4389756,5.74523077 C20.4389756,3.46338462 18.5662195,2.38030769 16.5022439,2.38030769 L11.8197561,2.38030769 L11.8197561,15.5076923 L14.8195122,15.5076923 L14.8195122,10.2523077 L15.4314146,10.2523077 C16.062439,10.2523077 16.444878,10.608 16.7317073,11.6701538 L17.7439756,15.5076923 L20.9743902,15.5076923 Z M17.3615366,6.27692308 C17.3615366,7.32061538 16.7317073,7.95076923 15.6417561,7.95076923 L14.8003902,7.95076923 L14.8003902,4.66338462 L15.6226341,4.66338462 C16.6743415,4.66338462 17.3615366,5.15569231 17.3615366,6.27692308 Z" id="Fill-2"></path>
                        <polyline id="Fill-3" points="32.5778293 15.5076923 28.4307561 8.50092308 32.2348293 2.38030769 28.7749512 2.38030769 25.8122439 7.89169231 25.8122439 2.38030769 22.7742439 2.38030769 22.7742439 15.5076923 25.8122439 15.5076923 25.8122439 9.46584615 28.9279268 15.5076923 32.5778293 15.5076923"></polyline>
                        <polyline id="Fill-4" points="51.0149756 15.5076923 51.0149756 2.38030769 49.2378293 2.38030769 49.2378293 7.93107692 45.0333902 7.93107692 45.0333902 2.38030769 43.2550488 2.38030769 43.2550488 15.5076923 45.0333902 15.5076923 45.0333902 9.46584615 49.2378293 9.46584615 49.2378293 15.5076923 51.0149756 15.5076923"></polyline>
                        <path d="M60.877122,10.5476923 C60.877122,8.02953846 59.9401463,5.47076923 57.0921707,5.47076923 C54.4545366,5.47076923 53.3084146,8.128 53.3084146,10.5476923 C53.3084146,13.0473846 54.3027561,15.7243077 57.0921707,15.7243077 C59.8636585,15.7243077 60.877122,12.9883077 60.877122,10.5476923 Z M59.1179024,10.5476923 C59.1179024,11.9064615 58.8310732,14.3470769 57.0921707,14.3470769 C55.3341463,14.3470769 55.066439,11.9261538 55.066439,10.5476923 C55.066439,9.22953846 55.3915122,6.848 57.0921707,6.848 C58.888439,6.848 59.1179024,9.15076923 59.1179024,10.5476923 Z" id="Fill-5"></path>
                        <path d="M68.4601707,15.3304615 L68.345439,13.776 C67.9247561,14.0516923 67.3140488,14.288 66.7977561,14.288 C64.8102683,14.288 64.160122,12.2990769 64.160122,10.5476923 C64.160122,8.89476923 64.8293902,6.90707692 66.6830244,6.90707692 C67.237561,6.90707692 67.8291463,7.04492308 68.2880732,7.36 L68.4028049,5.86461538 C67.7909024,5.60738462 67.1610732,5.47076923 66.5109268,5.47076923 C64.0071463,5.47076923 62.4020976,7.65538462 62.4020976,10.5476923 C62.4020976,13.2049231 63.5864634,15.7243077 66.453561,15.7243077 C67.1419512,15.7243077 67.8100244,15.5667692 68.4601707,15.3304615" id="Fill-6"></path>
                        <path d="M76.9060976,15.5076923 L76.9060976,8.73723077 C76.9060976,6.96615385 76.2177073,5.47076923 74.2875854,5.47076923 C73.2561951,5.47076923 72.3383415,6.19815385 71.9559024,7.104 L71.9559024,1.31692308 L70.3126098,1.31692308 L70.3126098,15.5076923 L71.9559024,15.5076923 L71.9559024,9.38707692 C71.9559024,8.32369231 72.5486829,6.86769231 73.7712927,6.86769231 C74.8612439,6.86769231 75.2628049,7.79323077 75.2628049,8.83569231 L75.2628049,15.5076923 L76.9060976,15.5076923" id="Fill-7"></path>
                        <path d="M84.5895366,12.7913846 C84.5895366,9.76123077 80.6528049,10.2338462 80.6528049,8.128 C80.6528049,7.32061538 81.4176829,6.848 82.143122,6.848 C82.8123902,6.848 83.3478049,7.04492308 83.9788293,7.30092308 L84.0923659,5.824 C83.4434146,5.60738462 82.7167805,5.47076923 82.0666341,5.47076923 C80.5571951,5.47076923 78.9521463,6.39507692 78.9521463,8.22523077 C78.9521463,11.2763077 82.888878,10.9415385 82.888878,12.9686154 C82.888878,13.8153846 82.0857561,14.3470769 81.3603171,14.3470769 C80.5571951,14.3470769 79.7540732,14.0713846 79.0095122,13.6578462 L78.8565366,15.2516923 C79.7158293,15.5667692 80.614561,15.7243077 81.5515366,15.7243077 C83.290439,15.7243077 84.5895366,14.6227692 84.5895366,12.7913846" id="Fill-8"></path>
                        <path d="M92.0243902,15.3304615 L91.9096585,13.776 C91.4901707,14.0516923 90.8782683,14.288 90.3619756,14.288 C88.3744878,14.288 87.7243415,12.2990769 87.7243415,10.5476923 C87.7243415,8.89476923 88.3936098,6.90707692 90.2472439,6.90707692 C90.8017805,6.90707692 91.394561,7.04492308 91.8522927,7.36 L91.9670244,5.86461538 C91.3563171,5.60738462 90.7252927,5.47076923 90.0751463,5.47076923 C87.5713659,5.47076923 85.9663171,7.65538462 85.9663171,10.5476923 C85.9663171,13.2049231 87.151878,15.7243077 90.0177805,15.7243077 C90.7061707,15.7243077 91.375439,15.5667692 92.0243902,15.3304615" id="Fill-9"></path>
                        <path d="M100.470317,15.5076923 L100.470317,8.73723077 C100.470317,6.96615385 99.783122,5.47076923 97.853,5.47076923 C96.8204146,5.47076923 95.902561,6.19815385 95.5213171,7.104 L95.5213171,1.31692308 L93.8768293,1.31692308 L93.8768293,15.5076923 L95.5213171,15.5076923 L95.5213171,9.38707692 C95.5213171,8.32369231 96.1129024,6.86769231 97.3367073,6.86769231 C98.4254634,6.86769231 98.8270244,7.79323077 98.8270244,8.83569231 L98.8270244,15.5076923 L100.470317,15.5076923" id="Fill-10"></path>
                        <path d="M109.66439,15.5076923 C109.645268,14.6030769 109.587902,13.6972308 109.587902,12.7913846 L109.587902,5.66769231 L107.94461,5.66769231 L107.94461,11.8867692 C107.94461,12.9489231 107.390073,14.3076923 106.147146,14.3076923 C105.039268,14.3076923 104.656829,13.3427692 104.656829,12.2990769 L104.656829,5.66769231 L103.013537,5.66769231 L103.013537,12.3581538 C103.013537,14.1501538 103.682805,15.7243077 105.632049,15.7243077 C106.797293,15.7243077 107.65778,14.9956923 108.09639,14.0910769 L108.134634,15.5076923 L109.66439,15.5076923" id="Fill-11"></path>
                        <polygon id="Fill-12" points="112.16339 15.5076923 113.806683 15.5076923 113.806683 1.31692308 112.16339 1.31692308"></polygon>
                        <path d="M120.606927,5.52984615 C120.473073,5.51015385 120.340415,5.47076923 120.206561,5.47076923 C119.11661,5.47076923 118.313488,6.23753846 117.874878,7.22215385 L117.836634,5.66769231 L116.306878,5.66769231 C116.326,6.57230769 116.383366,7.47815385 116.383366,8.38276923 L116.383366,15.5076923 L118.027854,15.5076923 L118.027854,9.99753846 C118.027854,8.73723077 118.581195,7.104 120.015341,7.104 C120.187439,7.104 120.340415,7.14338462 120.49339,7.16307692 L120.606927,5.52984615" id="Fill-13"></path>
                        <path d="M128.249732,11.0203077 L128.249732,10.3913846 C128.249732,8.16738462 127.561341,5.47076923 124.942829,5.47076923 C122.419927,5.47076923 121.407659,8.128 121.407659,10.5476923 C121.407659,13.3033846 122.419927,15.7243077 125.401756,15.7243077 C126.224,15.7243077 127.178902,15.5273846 127.924659,15.1729231 L127.809927,13.6578462 C127.178902,14.0910769 126.31961,14.4061538 125.554732,14.4061538 C123.643732,14.4061538 123.089195,12.6350769 123.089195,11.0203077 L128.249732,11.0203077 Z M126.644683,9.87938462 L123.089195,9.87938462 C123.089195,8.61907692 123.586366,6.74953846 124.942829,6.74953846 C126.338732,6.74953846 126.644683,8.67815385 126.644683,9.87938462 Z" id="Fill-14"></path>
                        <polyline id="Fill-15" points="137.036268 15.5076923 133.367244 10.0369231 136.730317 5.66769231 134.838439 5.66769231 131.896049 9.70215385 131.896049 1.31692308 130.251561 1.31692308 130.251561 15.5076923 131.896049 15.5076923 131.896049 10.4504615 135.125268 15.5076923 137.036268 15.5076923"></polyline>
                        <path d="M142.443,15.4486154 L142.328268,14.032 C142.042634,14.1895385 141.774927,14.3076923 141.468976,14.3076923 C140.570244,14.3076923 140.512878,13.7169231 140.512878,12.9489231 L140.512878,7.02523077 L142.366512,7.02523077 L142.366512,5.66769231 L140.512878,5.66769231 L140.512878,2.95138462 L138.888707,3.50153846 L138.888707,5.66769231 L137.494,5.66769231 L137.494,7.02523077 L138.869585,7.02523077 L138.869585,13.3624615 C138.869585,14.7593846 139.443244,15.7243077 140.914439,15.7243077 C141.392488,15.7243077 141.966146,15.6258462 142.443,15.4486154" id="Fill-16"></path>
                        <path d="M151.139902,10.5476923 C151.139902,8.02953846 150.202927,5.47076923 147.356146,5.47076923 C144.718512,5.47076923 143.571195,8.128 143.571195,10.5476923 C143.571195,13.0473846 144.565537,15.7243077 147.356146,15.7243077 C150.126439,15.7243077 151.139902,12.9883077 151.139902,10.5476923 Z M149.381878,10.5476923 C149.381878,11.9064615 149.095049,14.3470769 147.356146,14.3470769 C145.596927,14.3470769 145.330415,11.9261538 145.330415,10.5476923 C145.330415,9.22953846 145.654293,6.848 147.356146,6.848 C149.152415,6.848 149.381878,9.15076923 149.381878,10.5476923 Z" id="Fill-17"></path>
                        <path d="M157.423854,5.52984615 C157.29,5.51015385 157.156146,5.47076923 157.022293,5.47076923 C155.933537,5.47076923 155.130415,6.23753846 154.69061,7.22215385 L154.652366,5.66769231 L153.123805,5.66769231 C153.142927,6.57230769 153.200293,7.47815385 153.200293,8.38276923 L153.200293,15.5076923 L154.843585,15.5076923 L154.843585,9.99753846 C154.843585,8.73723077 155.398122,7.104 156.831073,7.104 C157.003171,7.104 157.156146,7.14338462 157.309122,7.16307692 L157.423854,5.52984615" id="Fill-18"></path>
                        <path d="M165.066659,11.0203077 L165.066659,10.3913846 C165.066659,8.16738462 164.378268,5.47076923 161.759756,5.47076923 C159.236854,5.47076923 158.224585,8.128 158.224585,10.5476923 C158.224585,13.3033846 159.236854,15.7243077 162.218683,15.7243077 C163.039732,15.7243077 163.995829,15.5273846 164.741585,15.1729231 L164.626854,13.6578462 C163.995829,14.0910769 163.135341,14.4061538 162.371659,14.4061538 C160.460659,14.4061538 159.906122,12.6350769 159.906122,11.0203077 L165.066659,11.0203077 Z M163.460415,9.87938462 L159.906122,9.87938462 C159.906122,8.61907692 160.403293,6.74953846 161.759756,6.74953846 C163.154463,6.74953846 163.460415,8.67815385 163.460415,9.87938462 Z" id="Fill-19"></path>
                        <path d="M173.681098,15.5076923 L173.681098,8.816 C173.681098,7.02523077 172.992707,5.47076923 171.043463,5.47076923 C169.87822,5.47076923 168.99861,6.19815385 168.558805,7.104 L168.520561,5.66769231 L166.992,5.66769231 C167.011122,6.57230769 167.068488,7.47815385 167.068488,8.38276923 L167.068488,15.5076923 L168.71178,15.5076923 L168.71178,9.28861538 C168.71178,8.22523077 169.285439,6.86769231 170.527171,6.86769231 C171.636244,6.86769231 172.037805,7.83261538 172.037805,8.87507692 L172.037805,15.5076923 L173.681098,15.5076923" id="Fill-20"></path>
                        <polyline id="Fill-21" points="183.046073 15.5076923 179.377049 10.0369231 182.740122 5.66769231 180.848244 5.66769231 177.904659 9.70215385 177.904659 1.31692308 176.261366 1.31692308 176.261366 15.5076923 177.904659 15.5076923 177.904659 10.4504615 181.135073 15.5076923 183.046073 15.5076923"></polyline>
                        <path d="M191.492,10.5476923 C191.492,8.02953846 190.555024,5.47076923 187.708244,5.47076923 C185.07061,5.47076923 183.923293,8.128 183.923293,10.5476923 C183.923293,13.0473846 184.917634,15.7243077 187.708244,15.7243077 C190.478537,15.7243077 191.492,12.9883077 191.492,10.5476923 Z M189.733976,10.5476923 C189.733976,11.9064615 189.447146,14.3470769 187.708244,14.3470769 C185.949024,14.3470769 185.682512,11.9261538 185.682512,10.5476923 C185.682512,9.22953846 186.00639,6.848 187.708244,6.848 C189.504512,6.848 189.733976,9.15076923 189.733976,10.5476923 Z" id="Fill-22"></path>
                        <path d="M200.165,15.5076923 L200.165,8.816 C200.165,7.02523077 199.47661,5.47076923 197.527366,5.47076923 C196.362122,5.47076923 195.482512,6.19815385 195.042707,7.104 L195.004463,5.66769231 L193.475902,5.66769231 C193.495024,6.57230769 193.55239,7.47815385 193.55239,8.38276923 L193.55239,15.5076923 L195.195683,15.5076923 L195.195683,9.28861538 C195.195683,8.22523077 195.769341,6.86769231 197.011073,6.86769231 C198.120146,6.86769231 198.521707,7.83261538 198.521707,8.87507692 L198.521707,15.5076923 L200.165,15.5076923" id="Fill-23"></path>
                        <path d="M206.892341,1.29846154 C206.605512,1.23938462 206.261317,1.12 205.727098,1.12 C204.122049,1.12 203.261561,1.92738462 203.261561,3.95446154 L203.261561,5.66769231 L201.771244,5.66769231 L201.771244,7.02523077 L203.261561,7.02523077 L203.261561,15.5076923 L204.904854,15.5076923 L204.904854,7.02523077 L206.58639,7.02523077 L206.58639,5.66769231 L204.904854,5.66769231 L204.904854,3.97415385 C204.904854,3.03015385 205.249049,2.49846154 206.071293,2.49846154 C206.318683,2.49846154 206.567268,2.53784615 206.77761,2.63630769 L206.892341,1.29846154" id="Fill-24"></path>
                        <path d="M214.416829,11.0203077 L214.416829,10.3913846 C214.416829,8.16738462 213.729634,5.47076923 211.111122,5.47076923 C208.58822,5.47076923 207.575951,8.128 207.575951,10.5476923 C207.575951,13.3033846 208.58822,15.7243077 211.570049,15.7243077 C212.391098,15.7243077 213.347195,15.5273846 214.092951,15.1729231 L213.97822,13.6578462 C213.347195,14.0910769 212.486707,14.4061538 211.723024,14.4061538 C209.812024,14.4061538 209.257488,12.6350769 209.257488,11.0203077 L214.416829,11.0203077 Z M212.81178,9.87938462 L209.257488,9.87938462 C209.257488,8.61907692 209.754659,6.74953846 211.111122,6.74953846 C212.505829,6.74953846 212.81178,8.67815385 212.81178,9.87938462 Z" id="Fill-25"></path>
                        <path d="M220.643415,5.52984615 C220.509561,5.51015385 220.375707,5.47076923 220.241854,5.47076923 C219.153098,5.47076923 218.349976,6.23753846 217.910171,7.22215385 L217.871927,5.66769231 L216.343366,5.66769231 C216.362488,6.57230769 216.419854,7.47815385 216.419854,8.38276923 L216.419854,15.5076923 L218.063146,15.5076923 L218.063146,9.99753846 C218.063146,8.73723077 218.617683,7.104 220.050634,7.104 C220.222732,7.104 220.375707,7.14338462 220.528683,7.16307692 L220.643415,5.52984615" id="Fill-26"></path>
                        <path d="M228.285024,11.0203077 L228.285024,10.3913846 C228.285024,8.16738462 227.597829,5.47076923 224.979317,5.47076923 C222.456415,5.47076923 221.442951,8.128 221.442951,10.5476923 C221.442951,13.3033846 222.456415,15.7243077 225.438244,15.7243077 C226.259293,15.7243077 227.21539,15.5273846 227.961146,15.1729231 L227.846415,13.6578462 C227.21539,14.0910769 226.354902,14.4061538 225.59122,14.4061538 C223.68022,14.4061538 223.125683,12.6350769 223.125683,11.0203077 L228.285024,11.0203077 Z M226.679976,9.87938462 L223.125683,9.87938462 C223.125683,8.61907692 223.622854,6.74953846 224.979317,6.74953846 C226.374024,6.74953846 226.679976,8.67815385 226.679976,9.87938462 Z" id="Fill-27"></path>
                        <path d="M236.900659,15.5076923 L236.900659,8.816 C236.900659,7.02523077 236.212268,5.47076923 234.263024,5.47076923 C233.09778,5.47076923 232.218171,6.19815385 231.778366,7.104 L231.740122,5.66769231 L230.211561,5.66769231 C230.230683,6.57230769 230.288049,7.47815385 230.288049,8.38276923 L230.288049,15.5076923 L231.931341,15.5076923 L231.931341,9.28861538 C231.931341,8.22523077 232.505,6.86769231 233.746732,6.86769231 C234.855805,6.86769231 235.257366,7.83261538 235.257366,8.87507692 L235.257366,15.5076923 L236.900659,15.5076923" id="Fill-28"></path>
                        <polyline id="Fill-29" points="244.660585 15.5076923 244.660585 14.1501538 240.437024 14.1501538 244.60322 7.14338462 244.60322 5.66769231 238.849902 5.66769231 238.849902 7.02523077 242.883439 7.02523077 238.716049 14.032 238.716049 15.5076923 244.660585 15.5076923"></polyline>
                    </g>
                </g>
                <path d="M1.53320312,5.71679688 L1.55761719,6.30273438 C1.94498892,5.84700293 2.46744463,5.61914062 3.125,5.61914062 C3.86393599,5.61914062 4.36686064,5.90234092 4.63378906,6.46875 C4.80957119,6.21484248 5.03824729,6.00976641 5.31982422,5.85351562 C5.60140115,5.69726484 5.93424287,5.61914062 6.31835938,5.61914062 C7.47721934,5.61914062 8.06640615,6.23274126 8.0859375,7.45996094 L8.0859375,11 L7.18261719,11 L7.18261719,7.51367188 C7.18261719,7.13606582 7.09635503,6.85367932 6.92382812,6.66650391 C6.75130122,6.47932849 6.46159058,6.38574219 6.0546875,6.38574219 C5.71939937,6.38574219 5.44108184,6.48583884 5.21972656,6.68603516 C4.99837129,6.88623147 4.86979185,7.15559727 4.83398438,7.49414062 L4.83398438,11 L3.92578125,11 L3.92578125,7.53808594 C3.92578125,6.76985293 3.54980845,6.38574219 2.79785156,6.38574219 C2.20540068,6.38574219 1.8001313,6.63801831 1.58203125,7.14257812 L1.58203125,11 L0.678710938,11 L0.678710938,5.71679688 L1.53320312,5.71679688 Z M10.4296875,11 L9.52636719,11 L9.52636719,5.71679688 L10.4296875,5.71679688 L10.4296875,11 Z M9.453125,4.31542969 C9.453125,4.16894458 9.49788367,4.0452479 9.58740234,3.94433594 C9.67692102,3.84342397 9.80956943,3.79296875 9.98535156,3.79296875 C10.1611337,3.79296875 10.2945959,3.84342397 10.3857422,3.94433594 C10.4768885,4.0452479 10.5224609,4.16894458 10.5224609,4.31542969 C10.5224609,4.46191479 10.4768885,4.58398389 10.3857422,4.68164062 C10.2945959,4.77929736 10.1611337,4.828125 9.98535156,4.828125 C9.80956943,4.828125 9.67692102,4.77929736 9.58740234,4.68164062 C9.49788367,4.58398389 9.453125,4.46191479 9.453125,4.31542969 Z M13.1005859,4.4375 L13.1005859,5.71679688 L14.0869141,5.71679688 L14.0869141,6.41503906 L13.1005859,6.41503906 L13.1005859,9.69140625 C13.1005859,9.90299585 13.1445308,10.0616857 13.2324219,10.1674805 C13.3203129,10.2732753 13.470051,10.3261719 13.6816406,10.3261719 C13.7858078,10.3261719 13.9290355,10.3066408 14.1113281,10.2675781 L14.1113281,11 C13.8736967,11.0651045 13.6425792,11.0976562 13.4179688,11.0976562 C13.0143209,11.0976562 12.709962,10.9755872 12.5048828,10.7314453 C12.2998037,10.4873035 12.1972656,10.1406272 12.1972656,9.69140625 L12.1972656,6.41503906 L11.2353516,6.41503906 L11.2353516,5.71679688 L12.1972656,5.71679688 L12.1972656,4.4375 L13.1005859,4.4375 Z M22.7636719,3.890625 L22.7636719,8.72460938 C22.7604167,9.39518564 22.549644,9.94368276 22.1313477,10.3701172 C21.7130513,10.7965516 21.1458369,11.035807 20.4296875,11.0878906 L20.1806641,11.0976562 C19.4026654,11.0976562 18.7825544,10.8876974 18.3203125,10.4677734 C17.8580706,10.0478495 17.6236979,9.47005576 17.6171875,8.734375 L17.6171875,3.890625 L18.5449219,3.890625 L18.5449219,8.70507812 C18.5449219,9.21940361 18.686522,9.61897644 18.9697266,9.90380859 C19.2529311,10.1886407 19.6565729,10.3310547 20.1806641,10.3310547 C20.7112657,10.3310547 21.1173489,10.1894545 21.3989258,9.90625 C21.6805027,9.62304546 21.8212891,9.22428643 21.8212891,8.70996094 L21.8212891,3.890625 L22.7636719,3.890625 Z M24.9560547,5.71679688 L24.9853516,6.38085938 C25.3889994,5.87304434 25.9163379,5.61914062 26.5673828,5.61914062 C27.6839249,5.61914062 28.2470703,6.24901714 28.2568359,7.50878906 L28.2568359,11 L27.3535156,11 L27.3535156,7.50390625 C27.3502604,7.12304497 27.2631844,6.84147227 27.0922852,6.65917969 C26.9213859,6.47688711 26.6552752,6.38574219 26.2939453,6.38574219 C26.0009751,6.38574219 25.7438162,6.46386641 25.5224609,6.62011719 C25.3011057,6.77636797 25.1285813,6.98144404 25.0048828,7.23535156 L25.0048828,11 L24.1015625,11 L24.1015625,5.71679688 L24.9560547,5.71679688 Z M30.8447266,4.4375 L30.8447266,5.71679688 L31.8310547,5.71679688 L31.8310547,6.41503906 L30.8447266,6.41503906 L30.8447266,9.69140625 C30.8447266,9.90299585 30.8886714,10.0616857 30.9765625,10.1674805 C31.0644536,10.2732753 31.2141917,10.3261719 31.4257812,10.3261719 C31.5299484,10.3261719 31.6731762,10.3066408 31.8554688,10.2675781 L31.8554688,11 C31.6178374,11.0651045 31.3867199,11.0976562 31.1621094,11.0976562 C30.7584615,11.0976562 30.4541026,10.9755872 30.2490234,10.7314453 C30.0439443,10.4873035 29.9414062,10.1406272 29.9414062,9.69140625 L29.9414062,6.41503906 L28.9794922,6.41503906 L28.9794922,5.71679688 L29.9414062,5.71679688 L29.9414062,4.4375 L30.8447266,4.4375 Z M35.078125,11.0976562 C34.3619756,11.0976562 33.7792991,10.8624698 33.3300781,10.3920898 C32.8808571,9.92170989 32.65625,9.29264717 32.65625,8.50488281 L32.65625,8.33886719 C32.65625,7.81477603 32.7563467,7.34684451 32.956543,6.93505859 C33.1567393,6.52327268 33.4366844,6.20101028 33.7963867,5.96826172 C34.156089,5.73551316 34.5458963,5.61914062 34.9658203,5.61914062 C35.6526727,5.61914062 36.1865215,5.84537534 36.5673828,6.29785156 C36.9482441,6.75032778 37.1386719,7.39810776 37.1386719,8.24121094 L37.1386719,8.6171875 L33.5595703,8.6171875 C33.5725912,9.13802344 33.7247707,9.55875491 34.0161133,9.87939453 C34.3074559,10.2000342 34.6777321,10.3603516 35.1269531,10.3603516 C35.4459651,10.3603516 35.7161447,10.295248 35.9375,10.1650391 C36.1588553,10.0348301 36.3525382,9.86230576 36.5185547,9.64746094 L37.0703125,10.0771484 C36.627602,10.7574904 35.9635461,11.0976562 35.078125,11.0976562 Z M34.9658203,6.36132812 C34.6012352,6.36132812 34.2952486,6.49397654 34.0478516,6.75927734 C33.8004545,7.02457815 33.6474612,7.39648198 33.5888672,7.875 L36.2353516,7.875 L36.2353516,7.80664062 C36.2093098,7.34765396 36.0856131,6.992026 35.8642578,6.73974609 C35.6429025,6.48746619 35.3434264,6.36132812 34.9658203,6.36132812 Z M40.7373047,6.52734375 C40.6005853,6.50455718 40.4524748,6.49316406 40.2929688,6.49316406 C39.7005179,6.49316406 39.2985037,6.74544019 39.0869141,7.25 L39.0869141,11 L38.1835938,11 L38.1835938,5.71679688 L39.0625,5.71679688 L39.0771484,6.32714844 C39.3733739,5.85514087 39.7932916,5.61914062 40.3369141,5.61914062 C40.5126962,5.61914062 40.6461584,5.64192686 40.7373047,5.6875 L40.7373047,6.52734375 Z M44.6435547,9.59863281 C44.6435547,9.35449097 44.551596,9.16487698 44.3676758,9.02978516 C44.1837556,8.89469333 43.8631208,8.7783208 43.4057617,8.68066406 C42.9484027,8.58300732 42.5854506,8.465821 42.3168945,8.32910156 C42.0483385,8.19238213 41.8497728,8.02962334 41.7211914,7.84082031 C41.59261,7.65201729 41.5283203,7.42741016 41.5283203,7.16699219 C41.5283203,6.73404731 41.711424,6.36784004 42.0776367,6.06835938 C42.4438495,5.76887871 42.911781,5.61914062 43.4814453,5.61914062 C44.0804066,5.61914062 44.5662416,5.77376147 44.9389648,6.08300781 C45.3116881,6.39225415 45.4980469,6.78775801 45.4980469,7.26953125 L44.5898438,7.26953125 C44.5898438,7.02213418 44.4848643,6.80892017 44.2749023,6.62988281 C44.0649404,6.45084546 43.8004573,6.36132812 43.4814453,6.36132812 C43.1526676,6.36132812 42.8955087,6.43294199 42.7099609,6.57617188 C42.5244131,6.71940176 42.4316406,6.90657437 42.4316406,7.13769531 C42.4316406,7.35579536 42.5179028,7.52018174 42.6904297,7.63085938 C42.8629566,7.74153701 43.1746397,7.84733022 43.6254883,7.94824219 C44.0763369,8.04915415 44.4417304,8.16959565 44.7216797,8.30957031 C45.001629,8.44954497 45.2091465,8.61800032 45.3442383,8.81494141 C45.4793301,9.0118825 45.546875,9.25195171 45.546875,9.53515625 C45.546875,10.0071638 45.3580748,10.385578 44.9804688,10.6704102 C44.6028627,10.9552423 44.1129587,11.0976562 43.5107422,11.0976562 C43.087563,11.0976562 42.7132178,11.0227872 42.3876953,10.8730469 C42.0621729,10.7233065 41.8074553,10.5141615 41.6235352,10.2456055 C41.439615,9.97704944 41.3476562,9.686525 41.3476562,9.37402344 L42.2509766,9.37402344 C42.2672527,9.67675933 42.388508,9.91682854 42.6147461,10.0942383 C42.8409842,10.271648 43.1396466,10.3603516 43.5107422,10.3603516 C43.8525408,10.3603516 44.1267893,10.2911791 44.3334961,10.152832 C44.5402029,10.014485 44.6435547,9.82975376 44.6435547,9.59863281 Z M47.9492188,4.4375 L47.9492188,5.71679688 L48.9355469,5.71679688 L48.9355469,6.41503906 L47.9492188,6.41503906 L47.9492188,9.69140625 C47.9492188,9.90299585 47.9931636,10.0616857 48.0810547,10.1674805 C48.1689458,10.2732753 48.3186838,10.3261719 48.5302734,10.3261719 C48.6344406,10.3261719 48.7776684,10.3066408 48.9599609,10.2675781 L48.9599609,11 C48.7223295,11.0651045 48.4912121,11.0976562 48.2666016,11.0976562 C47.8629537,11.0976562 47.5585948,10.9755872 47.3535156,10.7314453 C47.1484365,10.4873035 47.0458984,10.1406272 47.0458984,9.69140625 L47.0458984,6.41503906 L46.0839844,6.41503906 L46.0839844,5.71679688 L47.0458984,5.71679688 L47.0458984,4.4375 L47.9492188,4.4375 Z M53.2519531,10.4775391 C52.9003889,10.8909526 52.3844435,11.0976562 51.7041016,11.0976562 C51.1409477,11.0976562 50.7120783,10.9340837 50.4174805,10.6069336 C50.1228826,10.2797835 49.9739583,9.79557612 49.9707031,9.15429688 L49.9707031,5.71679688 L50.8740234,5.71679688 L50.8740234,9.12988281 C50.8740234,9.93066807 51.199541,10.3310547 51.8505859,10.3310547 C52.5406936,10.3310547 52.9996733,10.0738958 53.2275391,9.55957031 L53.2275391,5.71679688 L54.1308594,5.71679688 L54.1308594,11 L53.2714844,11 L53.2519531,10.4775391 Z M50.5078125,4.30566406 C50.5078125,4.15917896 50.5525712,4.03629607 50.6420898,3.93701172 C50.7316085,3.83772737 50.8642569,3.78808594 51.0400391,3.78808594 C51.2158212,3.78808594 51.3492834,3.83772737 51.4404297,3.93701172 C51.531576,4.03629607 51.5771484,4.15917896 51.5771484,4.30566406 C51.5771484,4.45214917 51.531576,4.57421826 51.4404297,4.671875 C51.3492834,4.76953174 51.2158212,4.81835938 51.0400391,4.81835938 C50.8642569,4.81835938 50.7316085,4.76953174 50.6420898,4.671875 C50.5525712,4.57421826 50.5078125,4.45214917 50.5078125,4.30566406 Z M52.6074219,4.31542969 C52.6074219,4.16894458 52.6521805,4.0452479 52.7416992,3.94433594 C52.8312179,3.84342397 52.9638663,3.79296875 53.1396484,3.79296875 C53.3154306,3.79296875 53.4488928,3.84342397 53.5400391,3.94433594 C53.6311854,4.0452479 53.6767578,4.16894458 53.6767578,4.31542969 C53.6767578,4.46191479 53.6311854,4.58398389 53.5400391,4.68164062 C53.4488928,4.77929736 53.3154306,4.828125 53.1396484,4.828125 C52.9638663,4.828125 52.8312179,4.77929736 52.7416992,4.68164062 C52.6521805,4.58398389 52.6074219,4.46191479 52.6074219,4.31542969 Z M56.7285156,4.4375 L56.7285156,5.71679688 L57.7148438,5.71679688 L57.7148438,6.41503906 L56.7285156,6.41503906 L56.7285156,9.69140625 C56.7285156,9.90299585 56.7724605,10.0616857 56.8603516,10.1674805 C56.9482426,10.2732753 57.0979807,10.3261719 57.3095703,10.3261719 C57.4137375,10.3261719 57.5569652,10.3066408 57.7392578,10.2675781 L57.7392578,11 C57.5016264,11.0651045 57.2705089,11.0976562 57.0458984,11.0976562 C56.6422506,11.0976562 56.3378917,10.9755872 56.1328125,10.7314453 C55.9277333,10.4873035 55.8251953,10.1406272 55.8251953,9.69140625 L55.8251953,6.41503906 L54.8632812,6.41503906 L54.8632812,5.71679688 L55.8251953,5.71679688 L55.8251953,4.4375 L56.7285156,4.4375 Z M59.6191406,10.2626953 L62.7099609,10.2626953 L62.7099609,11 L58.515625,11 L58.515625,10.3359375 L61.4306641,6.46386719 L58.5595703,6.46386719 L58.5595703,5.71679688 L62.5634766,5.71679688 L62.5634766,6.35644531 L59.6191406,10.2626953 Z M66.9873047,10.4775391 C66.6357404,10.8909526 66.1197951,11.0976562 65.4394531,11.0976562 C64.8762993,11.0976562 64.4474299,10.9340837 64.152832,10.6069336 C63.8582342,10.2797835 63.7093099,9.79557612 63.7060547,9.15429688 L63.7060547,5.71679688 L64.609375,5.71679688 L64.609375,9.12988281 C64.609375,9.93066807 64.9348926,10.3310547 65.5859375,10.3310547 C66.2760451,10.3310547 66.7350249,10.0738958 66.9628906,9.55957031 L66.9628906,5.71679688 L67.8662109,5.71679688 L67.8662109,11 L67.0068359,11 L66.9873047,10.4775391 Z M70.0927734,5.71679688 L70.1220703,6.38085938 C70.5257182,5.87304434 71.0530566,5.61914062 71.7041016,5.61914062 C72.8206436,5.61914062 73.383789,6.24901714 73.3935547,7.50878906 L73.3935547,11 L72.4902344,11 L72.4902344,7.50390625 C72.4869792,7.12304497 72.3999032,6.84147227 72.2290039,6.65917969 C72.0581046,6.47688711 71.791994,6.38574219 71.4306641,6.38574219 C71.1376938,6.38574219 70.880535,6.46386641 70.6591797,6.62011719 C70.4378244,6.77636797 70.2653001,6.98144404 70.1416016,7.23535156 L70.1416016,11 L69.2382812,11 L69.2382812,5.71679688 L70.0927734,5.71679688 Z M74.5410156,8.31445312 C74.5410156,7.4908813 74.7314434,6.83577717 75.1123047,6.34912109 C75.493166,5.86246501 75.9977182,5.61914062 76.6259766,5.61914062 C77.270511,5.61914062 77.7734357,5.84700293 78.1347656,6.30273438 L78.1787109,5.71679688 L79.0039062,5.71679688 L79.0039062,10.8730469 C79.0039062,11.556644 78.8012716,12.0953756 78.3959961,12.4892578 C77.9907206,12.88314 77.4462925,13.0800781 76.7626953,13.0800781 C76.381834,13.0800781 76.0091164,12.9986987 75.6445312,12.8359375 C75.2799461,12.6731763 75.0016286,12.4501967 74.8095703,12.1669922 L75.2783203,11.625 C75.665692,12.103518 76.1393201,12.3427734 76.6992188,12.3427734 C77.1386741,12.3427734 77.4812813,12.2190768 77.7270508,11.9716797 C77.9728202,11.7242826 78.0957031,11.3759788 78.0957031,10.9267578 L78.0957031,10.4726562 C77.7343732,10.889325 77.2412141,11.0976562 76.6162109,11.0976562 C75.9977183,11.0976562 75.497235,10.8486353 75.1147461,10.3505859 C74.7322572,9.85253657 74.5410156,9.17383242 74.5410156,8.31445312 Z M75.4492188,8.41699219 C75.4492188,9.01269829 75.5712878,9.48062981 75.8154297,9.82080078 C76.0595715,10.1609718 76.401365,10.3310547 76.8408203,10.3310547 C77.4104846,10.3310547 77.8287747,10.0722682 78.0957031,9.5546875 L78.0957031,7.14257812 C77.819009,6.63801831 77.4039741,6.38574219 76.8505859,6.38574219 C76.4111306,6.38574219 76.0677096,6.55663892 75.8203125,6.8984375 C75.5729154,7.24023608 75.4492188,7.74641592 75.4492188,8.41699219 Z M84.5849609,9.77441406 L85.8935547,5.71679688 L86.8164062,5.71679688 L84.921875,11 L84.2333984,11 L82.3193359,5.71679688 L83.2421875,5.71679688 L84.5849609,9.77441406 Z M87.3730469,8.30957031 C87.3730469,7.7919896 87.4747711,7.32649946 87.6782227,6.91308594 C87.8816742,6.49967241 88.1648745,6.18066519 88.527832,5.95605469 C88.8907896,5.73144419 89.3050107,5.61914062 89.7705078,5.61914062 C90.4899125,5.61914062 91.0717751,5.86816157 91.5161133,6.36621094 C91.9604514,6.8642603 92.1826172,7.52668857 92.1826172,8.35351562 L92.1826172,8.41699219 C92.1826172,8.93131768 92.0841481,9.39273884 91.887207,9.80126953 C91.6902659,10.2098002 91.4086932,10.5279937 91.0424805,10.7558594 C90.6762677,10.9837251 90.2555362,11.0976562 89.7802734,11.0976562 C89.064124,11.0976562 88.4838889,10.8486353 88.0395508,10.3505859 C87.5952126,9.85253657 87.3730469,9.19336348 87.3730469,8.37304688 L87.3730469,8.30957031 Z M88.28125,8.41699219 C88.28125,9.00293262 88.4171536,9.47330552 88.6889648,9.828125 C88.9607761,10.1829445 89.324542,10.3603516 89.7802734,10.3603516 C90.2392601,10.3603516 90.6038398,10.1805031 90.8740234,9.82080078 C91.1442071,9.46109846 91.2792969,8.95736001 91.2792969,8.30957031 C91.2792969,7.73014033 91.1417657,7.26058123 90.8666992,6.90087891 C90.5916327,6.54117659 90.2262393,6.36132812 89.7705078,6.36132812 C89.324542,6.36132812 88.9648451,6.53873521 88.6914062,6.89355469 C88.4179674,7.24837417 88.28125,7.75618159 88.28125,8.41699219 Z M94.1699219,5.71679688 L94.1992188,6.38085938 C94.6028666,5.87304434 95.1302051,5.61914062 95.78125,5.61914062 C96.897792,5.61914062 97.4609375,6.24901714 97.4707031,7.50878906 L97.4707031,11 L96.5673828,11 L96.5673828,7.50390625 C96.5641276,7.12304497 96.4770516,6.84147227 96.3061523,6.65917969 C96.1352531,6.47688711 95.8691424,6.38574219 95.5078125,6.38574219 C95.2148423,6.38574219 94.9576834,6.46386641 94.7363281,6.62011719 C94.5149729,6.77636797 94.3424485,6.98144404 94.21875,7.23535156 L94.21875,11 L93.3154297,11 L93.3154297,5.71679688 L94.1699219,5.71679688 Z" id="mit-Unterstützung-vo" fill="#333333"></path>
            </g>
        </g>
    </g>
</svg>