<?xml version="1.0" encoding="UTF-8"?>
<svg width="261px" height="39px" viewBox="0 0 261 39" version="1.1" xmlns="http://www.w3.org/2000/svg" xmlns:xlink="http://www.w3.org/1999/xlink">
    <!-- Generator: Sketch 52.1 (67048) - http://www.bohemiancoding.com/sketch -->
    <title>geritfooter-daad-logo</title>
    <desc>Created with Sketch.</desc>
    <g id="Symbols" stroke="none" stroke-width="1" fill="none" fill-rule="evenodd">
        <g id="Footer-Gerit-2" transform="translate(-630.000000, -238.000000)">
            <g id="geritfooter-daad-logo" transform="translate(630.000000, 235.000000)">
                <g id="DAADlogo" transform="translate(0.000000, 23.000000)" fill="#3F3F3F">
                    <g id="Group">
                        <path d="M90.3756845,12.3454565 C90.2810825,11.7820652 89.8173641,11.3958696 88.9756602,11.3958696 C88.3911553,11.3958696 87.9016748,11.5466304 87.5752136,11.9080435 C87.0342087,12.4962174 86.9138447,13.2859565 86.9138447,13.8571957 C86.9138447,14.3701957 87.0257621,15.2351087 87.481034,15.7642174 C87.8843592,16.2185652 88.5115194,16.3610652 89.130233,16.3610652 C89.8342573,16.3610652 90.2810825,16.226413 90.478733,16.1673478 L90.478733,14.3701957 L89.0613932,14.3701957 L89.0613932,13.6725652 L91.3377524,13.6725652 L91.3377524,16.6638261 C90.9770825,16.7807174 90.1864806,17.033087 89.130233,17.033087 C87.9874078,17.033087 87.3175922,16.7138043 86.8796359,16.2772174 C86.2697913,15.6721087 86.0117476,14.8237174 86.0117476,13.9666522 C86.0117476,13.3619565 86.1663204,11.9336522 87.3433544,11.1604348 C87.953199,10.7577174 88.7606942,10.7316957 89.0698398,10.7316957 C89.5597427,10.7316957 90.3068447,10.7907609 90.8997961,11.3789348 C91.2689126,11.7572826 91.2946748,12.1096087 91.3119903,12.3454565 L90.3756845,12.3454565" id="Fill-1"></path>
                        <path d="M95.487568,14.3780435 C95.4964369,13.974913 95.4191505,13.1351957 94.4224515,13.1351957 C93.8983398,13.1351957 93.262733,13.4458043 93.2458398,14.3780435 L95.487568,14.3780435 Z M93.2112087,14.9323478 C93.1943155,15.8063478 93.563432,16.4531739 94.4482136,16.4531739 C94.9723252,16.4531739 95.3933883,16.1846957 95.4618058,15.579587 L96.269301,15.579587 C96.2435388,15.7898261 96.2093301,16.1347174 95.9001845,16.4618478 C95.7109806,16.6716739 95.2814709,17.024413 94.4140049,17.024413 C93.0566359,17.024413 92.4121602,16.2016304 92.4121602,14.8654348 C92.4121602,14.0339783 92.5840485,13.3450217 93.262733,12.882413 C93.6753495,12.597 94.1905922,12.5718043 94.439767,12.5718043 C96.3723495,12.5718043 96.3292718,14.2433913 96.3123786,14.9323478 L93.2112087,14.9323478 Z" id="Fill-2"></path>
                        <path d="M97.5008155,13.5383261 C97.5008155,13.252913 97.4839223,12.958413 97.4581602,12.6808478 L98.2741019,12.6808478 L98.2909951,13.4966087 C98.4459903,12.9084348 98.961233,12.7147174 99.3219029,12.6647391 C99.5626311,12.6308696 99.742966,12.6391304 99.8806456,12.6478043 L99.8806456,13.4206087 C99.837568,13.4036739 99.7860437,13.3958261 99.7256505,13.3867391 C99.6656796,13.3788913 99.5883932,13.3788913 99.4937913,13.3788913 C98.5401699,13.3788913 98.3167573,13.9327826 98.3167573,14.6556087 L98.3167573,16.8984348 L97.5008155,16.8984348 L97.5008155,13.5383261" id="Fill-3"></path>
                        <path d="M100.675049,13.2438261 L100.657733,12.6808478 L101.473675,12.6808478 L101.473675,13.2950435 C101.886291,12.6308696 102.470374,12.5718043 102.83949,12.5718043 C103.793112,12.5718043 104.093811,13.0513478 104.248383,13.3619565 C104.39451,13.1261087 104.746733,12.5718043 105.700354,12.5718043 C106.318646,12.5718043 107.280714,12.8237609 107.280714,14.0678478 L107.280714,16.8984348 L106.464772,16.8984348 L106.464772,14.193413 C106.464772,13.8241522 106.395932,13.6643043 106.318646,13.5544348 C106.181388,13.3619565 105.906451,13.1851739 105.494257,13.1851739 C104.970146,13.1851739 104.686762,13.4796739 104.574845,13.6304348 C104.386063,13.8910652 104.386063,14.3532609 104.386063,14.5378913 L104.386063,16.8984348 L103.569699,16.8984348 L103.569699,14.1095652 C103.569699,13.5883043 103.260553,13.1851739 102.624947,13.1851739 C102.075073,13.1851739 101.774374,13.5213913 101.680194,13.6473696 C101.499859,13.8910652 101.49099,14.2355435 101.49099,14.5040217 L101.49099,16.8984348 L100.675049,16.8984348 L100.675049,13.2438261" id="Fill-4"></path>
                        <path d="M110.672024,14.8237174 C110.345563,14.8237174 109.117427,14.8237174 109.117427,15.6803696 C109.117427,15.9488478 109.288893,16.4110435 110.010655,16.4110435 C110.42285,16.4110435 110.732417,16.2516087 110.930068,15.9579348 C111.109981,15.6721087 111.11885,15.4366739 111.135743,14.8485 C110.990039,14.8315652 110.869675,14.8237174 110.672024,14.8237174 Z M111.230767,16.8984348 C111.170374,16.6886087 111.153058,16.4870435 111.153058,16.2685435 C110.766626,16.9661739 110.182544,17.033087 109.821874,17.033087 C108.833621,17.033087 108.301485,16.4870435 108.301485,15.7898261 C108.301485,15.4536087 108.421427,14.9162391 109.057456,14.5548261 C109.521175,14.3024565 110.208306,14.2772609 110.552083,14.2772609 C110.757757,14.2772609 110.88699,14.2855217 111.135743,14.3024565 C111.135743,13.7820217 111.135743,13.5544348 110.981592,13.3698043 C110.81815,13.1599783 110.465927,13.0930652 110.234068,13.0930652 C109.418126,13.0930652 109.375049,13.6391087 109.36618,13.8072174 L108.558684,13.8072174 C108.584447,13.5883043 108.610209,13.2950435 108.859383,13.0092174 C109.185845,12.6560652 109.796112,12.5552826 110.251383,12.5552826 C110.878544,12.5552826 111.548359,12.748587 111.780218,13.176913 C111.917476,13.4288696 111.926345,13.6304348 111.926345,13.8241522 L111.891714,15.8402174 C111.891714,15.9071304 111.900583,16.4701087 111.960553,16.8984348 L111.230767,16.8984348 Z" id="Fill-5"></path>
                        <path d="M113.312432,13.1682391 L113.303563,12.6808478 L114.111058,12.6808478 L114.119505,13.3619565 C114.214107,13.1851739 114.523252,12.597 115.502636,12.597 C115.88949,12.597 117.066102,12.739913 117.066102,14.0339783 L117.066102,16.8984348 L116.241291,16.8984348 L116.241291,14.2186087 C116.241291,13.9410435 116.207083,13.689087 116.009432,13.4966087 C115.803335,13.3028913 115.519951,13.2099565 115.245015,13.2099565 C114.660932,13.2099565 114.119505,13.6221739 114.119505,14.4709783 L114.119505,16.8984348 L113.312432,16.8984348 L113.312432,13.1682391" id="Fill-6"></path>
                        <path d="M122.811058,14.6386739 L125.156257,14.6386739 L124.013854,11.6643478 L122.811058,14.6386739 Z M123.592791,10.8328913 L124.512204,10.8328913 L127.020422,16.8984348 L126.084117,16.8984348 L125.414301,15.3189565 L122.536544,15.3189565 L121.866306,16.8984348 L120.981524,16.8984348 L123.592791,10.8328913 Z" id="Fill-7"></path>
                        <path d="M130.535898,14.0339783 C130.519005,13.841087 130.458612,13.1521304 129.676879,13.1521304 C128.560238,13.1521304 128.560238,14.4201739 128.560238,14.7398696 C128.560238,15.6043696 128.774782,16.4110435 129.633801,16.4110435 C130.320932,16.4110435 130.553214,15.9071304 130.570529,15.4957391 L131.386893,15.4957391 C131.335369,16.3193478 130.708209,17.0083043 129.642248,17.0083043 C129.350417,17.0083043 128.68018,16.9492391 128.224908,16.4618478 C127.967286,16.1673478 127.709665,15.722087 127.709665,14.8485 C127.709665,13.0930652 128.809413,12.5718043 129.66801,12.5718043 C129.951816,12.5718043 130.596291,12.6308696 130.992015,13.0930652 C131.309607,13.4536522 131.335369,13.7981304 131.352684,14.0339783 L130.535898,14.0339783" id="Fill-8"></path>
                        <path d="M134.792563,14.8237174 C134.466102,14.8237174 133.237966,14.8237174 133.237966,15.6803696 C133.237966,15.9488478 133.409432,16.4110435 134.131194,16.4110435 C134.543388,16.4110435 134.852534,16.2516087 135.050184,15.9579348 C135.230942,15.6721087 135.239388,15.4366739 135.256282,14.8485 C135.110578,14.8315652 134.989791,14.8237174 134.792563,14.8237174 Z M135.350883,16.8984348 C135.29049,16.6886087 135.273597,16.4870435 135.273597,16.2685435 C134.887165,16.9661739 134.30266,17.033087 133.94199,17.033087 C132.95416,17.033087 132.421602,16.4870435 132.421602,15.7898261 C132.421602,15.4536087 132.541544,14.9162391 133.177573,14.5548261 C133.641291,14.3024565 134.328845,14.2772609 134.672199,14.2772609 C134.878718,14.2772609 135.007107,14.2855217 135.256282,14.3024565 C135.256282,13.7820217 135.256282,13.5544348 135.101709,13.3698043 C134.938689,13.1599783 134.586466,13.0930652 134.354184,13.0930652 C133.538665,13.0930652 133.495165,13.6391087 133.487141,13.8072174 L132.679646,13.8072174 C132.704985,13.5883043 132.73117,13.2950435 132.980345,13.0092174 C133.306383,12.6560652 133.916228,12.5552826 134.3715,12.5552826 C134.99866,12.5552826 135.668898,12.748587 135.900757,13.176913 C136.038437,13.4288696 136.046461,13.6304348 136.046461,13.8241522 L136.012252,15.8402174 C136.012252,15.9071304 136.021121,16.4701087 136.081092,16.8984348 L135.350883,16.8984348 Z" id="Fill-9"></path>
                        <path d="M140.271029,13.5544348 C140.099563,13.3367609 139.781549,13.1261087 139.326277,13.1261087 C138.140796,13.1261087 138.140796,14.5292174 138.140796,14.8154565 C138.140796,15.5626522 138.338447,16.4279783 139.326277,16.4279783 C140.597913,16.4279783 140.597913,15.0591522 140.597913,14.7307826 C140.597913,14.1178261 140.451364,13.7820217 140.271029,13.5544348 Z M140.571728,10.8415652 L141.379223,10.8415652 L141.379223,16.226413 C141.379223,16.3193478 141.396539,16.6799348 141.413432,16.8984348 L140.605937,16.8984348 L140.589044,16.226413 C140.520204,16.3441304 140.425602,16.520913 140.202189,16.6716739 C139.849966,16.9075217 139.429325,16.9822826 139.137495,16.9822826 C138.561437,16.9822826 137.281777,16.6886087 137.281777,14.8406522 C137.281777,13.2359783 138.218083,12.5379348 139.231675,12.5379348 C140.159534,12.5379348 140.46868,13.0761304 140.571728,13.252913 L140.571728,10.8415652 Z" id="Fill-10"></path>
                        <path d="M145.596189,14.3780435 C145.604214,13.974913 145.52735,13.1351957 144.53065,13.1351957 C144.006539,13.1351957 143.370932,13.4458043 143.353617,14.3780435 L145.596189,14.3780435 Z M143.319408,14.9323478 C143.302092,15.8063478 143.671631,16.4531739 144.556413,16.4531739 C145.080524,16.4531739 145.501165,16.1846957 145.570005,15.579587 L146.3775,15.579587 C146.351738,15.7898261 146.317529,16.1347174 146.007961,16.4618478 C145.81918,16.6716739 145.38967,17.024413 144.522204,17.024413 C143.164835,17.024413 142.520359,16.2016304 142.520359,14.8654348 C142.520359,14.0339783 142.69267,13.3450217 143.370932,12.882413 C143.783549,12.597 144.298369,12.5718043 144.547544,12.5718043 C146.480549,12.5718043 146.437893,14.2433913 146.420578,14.9323478 L143.319408,14.9323478 Z" id="Fill-11"></path>
                        <path d="M147.466267,13.2438261 L147.448951,12.6808478 L148.265316,12.6808478 L148.265316,13.2950435 C148.677932,12.6308696 149.261592,12.5718043 149.631131,12.5718043 C150.584752,12.5718043 150.885451,13.0513478 151.040024,13.3619565 C151.18615,13.1261087 151.538374,12.5718043 152.491995,12.5718043 C153.110286,12.5718043 154.072354,12.8237609 154.072354,14.0678478 L154.072354,16.8984348 L153.25599,16.8984348 L153.25599,14.193413 C153.25599,13.8241522 153.187573,13.6643043 153.110286,13.5544348 C152.972607,13.3619565 152.69767,13.1851739 152.285476,13.1851739 C151.761364,13.1851739 151.477981,13.4796739 151.366485,13.6304348 C151.177282,13.8910652 151.177282,14.3532609 151.177282,14.5378913 L151.177282,16.8984348 L150.36134,16.8984348 L150.36134,14.1095652 C150.36134,13.5883043 150.051772,13.1851739 149.416587,13.1851739 C148.866714,13.1851739 148.566015,13.5213913 148.471413,13.6473696 C148.291078,13.8910652 148.282631,14.2355435 148.282631,14.5040217 L148.282631,16.8984348 L147.466267,16.8984348 L147.466267,13.2438261" id="Fill-12"></path>
                        <path d="M155.367218,16.8984348 L156.174714,16.8984348 L156.174714,12.6808478 L155.367218,12.6808478 L155.367218,16.8984348 Z M155.281063,11.7151522 L156.252,11.7151522 L156.252,10.849413 L155.281063,10.849413 L155.281063,11.7151522 Z" id="Fill-13"></path>
                        <path d="M160.155175,14.0339783 C160.137859,13.841087 160.077888,13.1521304 159.296155,13.1521304 C158.179515,13.1521304 158.179515,14.4201739 158.179515,14.7398696 C158.179515,15.6043696 158.394058,16.4110435 159.2535,16.4110435 C159.940209,16.4110435 160.172068,15.9071304 160.189383,15.4957391 L161.005748,15.4957391 C160.954223,16.3193478 160.327063,17.0083043 159.261947,17.0083043 C158.969694,17.0083043 158.299879,16.9492391 157.844607,16.4618478 C157.586563,16.1673478 157.328942,15.722087 157.328942,14.8485 C157.328942,13.0930652 158.428267,12.5718043 159.287709,12.5718043 C159.57067,12.5718043 160.215568,12.6308696 160.610447,13.0930652 C160.928039,13.4536522 160.954223,13.7981304 160.971117,14.0339783 L160.155175,14.0339783" id="Fill-14"></path>
                        <polyline id="Fill-15" points="165.493005 10.8328913 169.384354 10.8328913 169.384354 11.5466304 166.352024 11.5466304 166.352024 13.4375435 169.238228 13.4375435 169.238228 14.1426087 166.352024 14.1426087 166.352024 16.1595 169.453194 16.1595 169.453194 16.8984348 165.493005 16.8984348 165.493005 10.8328913"></polyline>
                        <polyline id="Fill-16" points="174.630117 16.8984348 173.564578 16.8984348 172.336442 15.209913 171.11633 16.8984348 170.171578 16.8984348 171.88117 14.6886522 170.26618 12.6808478 171.32285 12.6808478 172.473699 14.269413 173.676495 12.6808478 174.630117 12.6808478 172.945864 14.7398696 174.630117 16.8984348"></polyline>
                        <path d="M178.010447,14.0339783 C177.993131,13.841087 177.932738,13.1521304 177.151005,13.1521304 C176.034364,13.1521304 176.034364,14.4201739 176.034364,14.7398696 C176.034364,15.6043696 176.24933,16.4110435 177.10835,16.4110435 C177.795481,16.4110435 178.02734,15.9071304 178.044655,15.4957391 L178.860597,15.4957391 C178.809073,16.3193478 178.181913,17.0083043 177.116796,17.0083043 C176.824544,17.0083043 176.154728,16.9492391 175.699456,16.4618478 C175.441835,16.1673478 175.183791,15.722087 175.183791,14.8485 C175.183791,13.0930652 176.283539,12.5718043 177.142558,12.5718043 C177.425942,12.5718043 178.070417,12.6308696 178.465718,13.0930652 C178.783311,13.4536522 178.809073,13.7981304 178.825966,14.0339783 L178.010447,14.0339783" id="Fill-17"></path>
                        <path d="M180.132233,10.8415652 L180.948597,10.8415652 L180.948597,13.3028913 C181.214665,12.8576304 181.747223,12.606087 182.348621,12.606087 C182.803471,12.606087 183.456393,12.7655217 183.705568,13.2781087 C183.791723,13.4458043 183.851694,13.6473696 183.851694,14.2603261 L183.851694,16.8984348 L183.027306,16.8984348 L183.027306,14.4032391 C183.027306,14.0257174 183.027306,13.2099565 182.099447,13.2099565 C181.498049,13.2099565 181.19735,13.5713696 181.085854,13.7733478 C180.948597,14.0087826 180.948597,14.4032391 180.948597,14.6638696 L180.948597,16.8984348 L180.132233,16.8984348 L180.132233,10.8415652" id="Fill-18"></path>
                        <path d="M187.478243,14.8237174 C187.151782,14.8237174 185.923646,14.8237174 185.923646,15.6803696 C185.923646,15.9488478 186.095112,16.4110435 186.816874,16.4110435 C187.229068,16.4110435 187.538214,16.2516087 187.735864,15.9579348 C187.916621,15.6721087 187.925068,15.4366739 187.941961,14.8485 C187.796257,14.8315652 187.675471,14.8237174 187.478243,14.8237174 Z M188.036563,16.8984348 C187.97617,16.6886087 187.959277,16.4870435 187.959277,16.2685435 C187.572845,16.9661739 186.98834,17.033087 186.62767,17.033087 C185.63984,17.033087 185.107282,16.4870435 185.107282,15.7898261 C185.107282,15.4536087 185.227223,14.9162391 185.863252,14.5548261 C186.326971,14.3024565 187.014524,14.2772609 187.357879,14.2772609 C187.564398,14.2772609 187.692786,14.2855217 187.941961,14.3024565 C187.941961,13.7820217 187.941961,13.5544348 187.787388,13.3698043 C187.624369,13.1599783 187.272146,13.0930652 187.039864,13.0930652 C186.224345,13.0930652 186.180845,13.6391087 186.17282,13.8072174 L185.365325,13.8072174 C185.390665,13.5883043 185.41685,13.2950435 185.666024,13.0092174 C185.992063,12.6560652 186.601908,12.5552826 187.05718,12.5552826 C187.68434,12.5552826 188.354578,12.748587 188.586437,13.176913 C188.724117,13.4288696 188.732141,13.6304348 188.732141,13.8241522 L188.697932,15.8402174 C188.697932,15.9071304 188.706801,16.4701087 188.766772,16.8984348 L188.036563,16.8984348 Z" id="Fill-19"></path>
                        <path d="M190.118228,13.1682391 L190.109782,12.6808478 L190.916854,12.6808478 L190.925723,13.3619565 C191.019903,13.1851739 191.329471,12.597 192.308854,12.597 C192.695286,12.597 193.871898,12.739913 193.871898,14.0339783 L193.871898,16.8984348 L193.04751,16.8984348 L193.04751,14.2186087 C193.04751,13.9410435 193.012879,13.689087 192.815228,13.4966087 C192.609553,13.3028913 192.325748,13.2099565 192.051233,13.2099565 C191.466728,13.2099565 190.925723,13.6221739 190.925723,14.4709783 L190.925723,16.8984348 L190.118228,16.8984348 L190.118228,13.1682391" id="Fill-20"></path>
                        <path d="M197.967233,15.8150217 C198.139121,15.5965217 198.259485,15.3697609 198.259485,14.6048043 C198.259485,14.0756957 198.139121,13.7733478 197.924578,13.5544348 C197.709612,13.3276739 197.366257,13.1851739 196.996718,13.1851739 C195.97468,13.1851739 195.837,14.193413 195.837,14.7307826 C195.837,15.3776087 196.034228,16.2355 197.022481,16.2355 C197.494646,16.2355 197.770005,16.0665652 197.967233,15.8150217 Z M196.085752,17.2259783 C196.120383,17.6972609 196.326903,18.049587 197.090898,18.049587 C198.216408,18.049587 198.233301,17.251587 198.233301,16.1086957 C197.889947,16.8063261 197.074005,16.8232609 196.816383,16.8232609 C196.421083,16.8232609 195.854316,16.738587 195.493223,16.302413 C195.124107,15.874087 195.003743,15.3106957 195.003743,14.7477174 C195.003743,13.3198261 195.862762,12.6221957 196.919432,12.6221957 C197.786898,12.6221957 198.104913,13.0422609 198.276801,13.2607609 L198.284825,12.6808478 L199.066981,12.6808478 L199.049665,13.4458043 L199.040796,16.0835 C199.040796,17.1 199.006587,17.5113913 198.834699,17.831087 C198.474451,18.5031087 197.632325,18.5869565 197.039374,18.5869565 C195.312888,18.5869565 195.261364,17.7980435 195.227155,17.2259783 L196.085752,17.2259783 Z" id="Fill-21"></path>
                        <path d="M203.299995,14.3780435 C203.308442,13.974913 203.231155,13.1351957 202.234879,13.1351957 C201.710767,13.1351957 201.07516,13.4458043 201.057845,14.3780435 L203.299995,14.3780435 Z M201.023636,14.9323478 C201.00632,15.8063478 201.375859,16.4531739 202.260641,16.4531739 C202.784752,16.4531739 203.205393,16.1846957 203.274233,15.579587 L204.081728,15.579587 C204.055966,15.7898261 204.021335,16.1347174 203.712189,16.4618478 C203.523408,16.6716739 203.093898,17.024413 202.22601,17.024413 C200.869063,17.024413 200.224587,16.2016304 200.224587,14.8654348 C200.224587,14.0339783 200.396476,13.3450217 201.07516,12.882413 C201.487354,12.597 202.002597,12.5718043 202.251772,12.5718043 C204.184777,12.5718043 204.142121,14.2433913 204.124806,14.9323478 L201.023636,14.9323478 Z" id="Fill-22"></path>
                        <path d="M208.933034,15.1260652 C208.949927,15.5465435 209.001451,16.3271957 210.42766,16.3271957 C211.716189,16.3271957 211.879631,15.5465435 211.879631,15.2437826 C211.879631,14.563087 211.321311,14.4292609 210.453422,14.2186087 C209.50867,13.9918478 209.087607,13.8910652 208.770015,13.6812391 C208.262796,13.3450217 208.125539,12.8915 208.125539,12.4879565 C208.125539,11.2529565 209.319466,10.7147609 210.487631,10.7147609 C210.900248,10.7147609 211.733083,10.7825 212.231854,11.3120217 C212.575209,11.6812826 212.592102,12.0926739 212.609417,12.3454565 L211.716189,12.3454565 C211.673534,11.589587 211.020612,11.4206522 210.410345,11.4206522 C209.551325,11.4206522 209.03566,11.799 209.03566,12.4041087 C209.03566,12.9414783 209.396752,13.1261087 210.152723,13.3028913 C211.630456,13.6725652 211.793476,13.7064348 212.154146,13.9410435 C212.730204,14.3111304 212.772859,14.8993043 212.772859,15.1512609 C212.772859,16.226413 211.91384,17.0413478 210.324612,17.0413478 C209.852024,17.0413478 208.889956,16.9661739 208.400476,16.3523913 C208.048252,15.9071304 208.039383,15.4197391 208.039383,15.1260652 L208.933034,15.1260652" id="Fill-23"></path>
                        <path d="M216.800621,14.3780435 C216.809068,13.974913 216.731782,13.1351957 215.735505,13.1351957 C215.211393,13.1351957 214.575786,13.4458043 214.558471,14.3780435 L216.800621,14.3780435 Z M214.524262,14.9323478 C214.506947,15.8063478 214.876485,16.4531739 215.760845,16.4531739 C216.285379,16.4531739 216.706019,16.1846957 216.774859,15.579587 L217.582354,15.579587 C217.55617,15.7898261 217.521961,16.1347174 217.212816,16.4618478 C217.024034,16.6716739 216.594524,17.024413 215.726636,17.024413 C214.369267,17.024413 213.725214,16.2016304 213.725214,14.8654348 C213.725214,14.0339783 213.897102,13.3450217 214.575786,12.882413 C214.987981,12.597 215.503223,12.5718043 215.752398,12.5718043 C217.685403,12.5718043 217.642325,14.2433913 217.62501,14.9323478 L214.524262,14.9323478 Z" id="Fill-24"></path>
                        <path d="M218.69435,13.5383261 C218.69435,13.252913 218.677034,12.958413 218.651272,12.6808478 L219.467636,12.6808478 L219.484529,13.4966087 C219.639102,12.9084348 220.154767,12.7147174 220.515437,12.6647391 C220.755743,12.6308696 220.936078,12.6391304 221.073335,12.6478043 L221.073335,13.4206087 C221.03068,13.4036739 220.979155,13.3958261 220.919184,13.3867391 C220.859214,13.3788913 220.781505,13.3788913 220.686903,13.3788913 C219.733704,13.3788913 219.510291,13.9327826 219.510291,14.6556087 L219.510291,16.8984348 L218.69435,16.8984348 L218.69435,13.5383261" id="Fill-25"></path>
                        <polyline id="Fill-26" points="221.542544 12.6808478 222.444641 12.6808478 223.818481 16.0248478 225.158956 12.6808478 226.052184 12.6808478 224.16268 16.8984348 223.346316 16.8984348 221.542544 12.6808478"></polyline>
                        <path d="M226.97033,16.8984348 L227.777825,16.8984348 L227.777825,12.6808478 L226.97033,12.6808478 L226.97033,16.8984348 Z M226.884175,11.7151522 L227.855112,11.7151522 L227.855112,10.849413 L226.884175,10.849413 L226.884175,11.7151522 Z" id="Fill-27"></path>
                        <path d="M231.758286,14.0339783 C231.740971,13.841087 231.681,13.1521304 230.899267,13.1521304 C229.782626,13.1521304 229.782626,14.4201739 229.782626,14.7398696 C229.782626,15.6043696 229.99717,16.4110435 230.856189,16.4110435 C231.54332,16.4110435 231.77518,15.9071304 231.792495,15.4957391 L232.608859,15.4957391 C232.557335,16.3193478 231.929752,17.0083043 230.865058,17.0083043 C230.572806,17.0083043 229.90299,16.9492391 229.447718,16.4618478 C229.189675,16.1673478 228.932053,15.722087 228.932053,14.8485 C228.932053,13.0930652 230.031379,12.5718043 230.89082,12.5718043 C231.173782,12.5718043 231.81868,12.6308696 232.213558,13.0930652 C232.53115,13.4536522 232.557335,13.7981304 232.574228,14.0339783 L231.758286,14.0339783" id="Fill-28"></path>
                        <path d="M236.581718,14.3780435 C236.590165,13.974913 236.512879,13.1351957 235.516602,13.1351957 C234.992068,13.1351957 234.356883,13.4458043 234.339568,14.3780435 L236.581718,14.3780435 Z M234.305359,14.9323478 C234.287621,15.8063478 234.65716,16.4531739 235.541942,16.4531739 C236.066053,16.4531739 236.487117,16.1846957 236.555956,15.579587 L237.363451,15.579587 C237.337267,15.7898261 237.303058,16.1347174 236.993913,16.4618478 C236.804709,16.6716739 236.375621,17.024413 235.507733,17.024413 C234.150364,17.024413 233.506311,16.2016304 233.506311,14.8654348 C233.506311,14.0339783 233.678199,13.3450217 234.356883,12.882413 C234.769078,12.597 235.28432,12.5718043 235.533495,12.5718043 C237.4665,12.5718043 237.423422,14.2433913 237.406107,14.9323478 L234.305359,14.9323478 Z" id="Fill-29"></path>
                        <path d="M87.1520388,5.6211087 L87.994165,5.6211087 C88.5866942,5.6211087 89.2049854,5.58765217 89.6176019,5.28530435 C90.4077816,4.70580435 90.4335437,3.71408696 90.4335437,3.36134783 C90.4335437,3.13458696 90.4162282,2.10115217 89.8321456,1.47084783 C89.437267,1.04252174 88.9389175,0.94173913 88.1829466,0.94173913 L87.1520388,0.94173913 L87.1520388,5.6211087 Z M86.2930194,0.244521739 L88.0883447,0.244521739 C88.9216019,0.244521739 89.9009854,0.244521739 90.5881165,1.03426087 C91.1379903,1.66415217 91.352534,2.49602174 91.352534,3.3278913 C91.352534,4.63806522 90.7942136,5.44473913 90.3220485,5.81441304 C89.7117816,6.31006522 88.9473641,6.31006522 88.0368204,6.31006522 L86.2930194,6.31006522 L86.2930194,0.244521739 Z" id="Fill-30"></path>
                        <path d="M95.4373107,3.78967391 C95.4457573,3.38654348 95.3684709,2.54641304 94.3721942,2.54641304 C93.8480825,2.54641304 93.2120534,2.85702174 93.1951602,3.78967391 L95.4373107,3.78967391 Z M93.1605291,4.3443913 C93.1436359,5.21797826 93.5127524,5.86480435 94.3979563,5.86480435 C94.9216456,5.86480435 95.3427087,5.59591304 95.4115485,4.99121739 L96.2190437,4.99121739 C96.1932816,5.20104348 96.1586505,5.54552174 95.8495049,5.87347826 C95.660301,6.08330435 95.2307913,6.43645652 94.3633252,6.43645652 C93.0059563,6.43645652 92.3619029,5.61284783 92.3619029,4.27706522 C92.3619029,3.44519565 92.5337913,2.75623913 93.2120534,2.29445652 C93.6246699,2.00863043 94.1399126,1.98343478 94.3890874,1.98343478 C96.3220922,1.98343478 96.2790146,3.65543478 96.261699,4.3443913 L93.1605291,4.3443913 Z" id="Fill-31"></path>
                        <path d="M98.1892136,2.0928913 L98.1892136,4.80658696 C98.1892136,5.21797826 98.2833932,5.73882609 99.1082039,5.73882609 C99.5119515,5.73882609 99.8899369,5.60458696 100.121796,5.26836957 C100.302553,5.01641304 100.302553,4.68886957 100.302553,4.47863043 L100.302553,2.0928913 L101.135388,2.0928913 L101.135388,5.52032609 C101.135388,5.60458696 101.152704,6.07504348 101.16115,6.31006522 L100.319447,6.31006522 L100.302553,5.58765217 C100.147558,5.88173913 99.8557282,6.35219565 98.9278689,6.35219565 C97.8627524,6.35219565 97.3644029,5.75576087 97.3644029,4.9238913 L97.3644029,2.0928913 L98.1892136,2.0928913" id="Fill-32"></path>
                        <path d="M102.159961,2.07595652 L102.924801,2.07595652 L102.924801,1.19369565 L103.72385,0.94173913 L103.72385,2.07595652 L104.685495,2.07595652 L104.685495,2.65586957 L103.72385,2.65586957 L103.72385,5.18452174 C103.72385,5.39434783 103.72385,5.74708696 104.299063,5.74708696 C104.462505,5.74708696 104.617078,5.72230435 104.685495,5.70536957 L104.685495,6.31873913 C104.539791,6.34393478 104.30751,6.36913043 104.01568,6.36913043 C103.277024,6.36913043 102.924801,6.1588913 102.924801,5.46993478 L102.924801,2.65586957 L102.159961,2.65586957 L102.159961,2.07595652" id="Fill-33"></path>
                        <path d="M106.49349,5.05854348 C106.485044,5.37782609 106.65651,5.82308696 107.438243,5.82308696 C107.773573,5.82308696 108.022325,5.76402174 108.194214,5.55419565 C108.280369,5.44473913 108.331893,5.30182609 108.331893,5.15932609 C108.331893,4.74752174 108.031194,4.67193478 107.386718,4.52902174 C106.485044,4.32745652 105.729073,4.15108696 105.729073,3.26882609 C105.729073,2.49602174 106.416204,1.9921087 107.412481,1.9921087 C107.953908,1.9921087 108.709456,2.14328261 108.9675,2.64719565 C109.078995,2.88221739 109.078995,3.08419565 109.078995,3.26056522 L108.254607,3.26056522 C108.280369,2.622 107.71318,2.5716087 107.42135,2.5716087 C107.300985,2.5716087 106.545015,2.5716087 106.545015,3.17630435 C106.545015,3.56291304 106.931447,3.65543478 107.154859,3.71408696 C108.348786,3.99165217 108.60683,4.05856522 108.864451,4.294 C109.104757,4.5125 109.19049,4.80658696 109.19049,5.07547826 C109.19049,5.54552174 108.924422,5.94906522 108.60683,6.14236957 C108.228845,6.36913043 107.773573,6.42778261 107.326748,6.42778261 C106.450413,6.42778261 105.634471,6.07504348 105.642917,5.05854348 L106.49349,5.05854348" id="Fill-34"></path>
                        <path d="M113.073816,3.44519565 C113.056922,3.25230435 112.996951,2.56334783 112.215218,2.56334783 C111.098155,2.56334783 111.098155,3.83180435 111.098155,4.15108696 C111.098155,5.01641304 111.313121,5.82308696 112.172141,5.82308696 C112.859272,5.82308696 113.091131,5.31876087 113.108447,4.90695652 L113.924388,4.90695652 C113.872864,5.73056522 113.246126,6.41952174 112.180587,6.41952174 C111.888757,6.41952174 111.218519,6.36045652 110.763248,5.87347826 C110.505626,5.5793913 110.248005,5.13413043 110.248005,4.26013043 C110.248005,2.50428261 111.34733,1.98343478 112.20635,1.98343478 C112.489733,1.98343478 113.134209,2.0425 113.529087,2.50428261 C113.847102,2.86569565 113.872864,3.21017391 113.89018,3.44519565 L113.073816,3.44519565" id="Fill-35"></path>
                        <path d="M115.196024,0.252782609 L116.011966,0.252782609 L116.011966,2.71452174 C116.278456,2.26926087 116.811015,2.01730435 117.412413,2.01730435 C117.867684,2.01730435 118.520607,2.17673913 118.769782,2.68932609 C118.855515,2.85702174 118.915485,3.059 118.915485,3.67236957 L118.915485,6.31006522 L118.091097,6.31006522 L118.091097,3.81486957 C118.091097,3.43693478 118.091097,2.622 117.163238,2.622 C116.56184,2.622 116.261141,2.98341304 116.149646,3.18497826 C116.011966,3.42 116.011966,3.81486957 116.011966,4.0755 L116.011966,6.31006522 L115.196024,6.31006522 L115.196024,0.252782609" id="Fill-36"></path>
                        <path d="M123.045874,3.78967391 C123.054743,3.38654348 122.977456,2.54641304 121.980757,2.54641304 C121.456646,2.54641304 120.821039,2.85702174 120.804146,3.78967391 L123.045874,3.78967391 Z M120.769515,4.3443913 C120.752199,5.21797826 121.121738,5.86480435 122.006519,5.86480435 C122.530631,5.86480435 122.951272,5.59591304 123.020112,4.99121739 L123.827607,4.99121739 C123.801845,5.20104348 123.767636,5.54552174 123.45849,5.87347826 C123.269286,6.08330435 122.839777,6.43645652 121.972311,6.43645652 C120.614942,6.43645652 119.970466,5.61284783 119.970466,4.27706522 C119.970466,3.44519565 120.142354,2.75623913 120.821039,2.29445652 C121.233655,2.00863043 121.748898,1.98343478 121.998073,1.98343478 C123.930655,1.98343478 123.887578,3.65543478 123.870684,4.3443913 L120.769515,4.3443913 Z" id="Fill-37"></path>
                        <path d="M125.178641,2.94954348 C125.178641,2.66413043 125.161748,2.37004348 125.135985,2.0928913 L125.951927,2.0928913 L125.96882,2.90782609 C126.123816,2.31965217 126.639058,2.12634783 126.999728,2.07595652 C127.240456,2.0425 127.420791,2.05076087 127.558471,2.05902174 L127.558471,2.83182609 C127.515393,2.81530435 127.463869,2.80663043 127.403476,2.79836957 C127.343505,2.7901087 127.266218,2.7901087 127.171617,2.7901087 C126.217995,2.7901087 125.995005,3.34441304 125.995005,4.06723913 L125.995005,6.31006522 L125.178641,6.31006522 L125.178641,2.94954348" id="Fill-38"></path>
                        <path d="M132.752709,4.05030435 L135.097908,4.05030435 L133.955505,1.07597826 L132.752709,4.05030435 Z M133.534019,0.244521739 L134.453854,0.244521739 L136.962073,6.31006522 L136.025345,6.31006522 L135.355529,4.731 L132.47735,4.731 L131.807534,6.31006522 L130.923597,6.31006522 L133.534019,0.244521739 Z" id="Fill-39"></path>
                        <polyline id="Fill-40" points="137.949481 0.244521739 138.748107 0.244521739 138.748107 3.81486957 140.363097 2.0928913 141.419767 2.0928913 139.598257 3.88219565 141.531262 6.31006522 140.475437 6.31006522 138.748107 4.03336957 138.748107 6.31006522 137.949481 6.31006522 137.949481 0.244521739"></polyline>
                        <path d="M144.626942,4.23493478 C144.300058,4.23493478 143.071922,4.23493478 143.071922,5.092 C143.071922,5.3608913 143.243388,5.82308696 143.96515,5.82308696 C144.377767,5.82308696 144.686913,5.66323913 144.884141,5.36956522 C145.064898,5.08373913 145.073767,4.84830435 145.090238,4.26013043 C144.944534,4.2436087 144.824592,4.23493478 144.626942,4.23493478 Z M145.185262,6.31006522 C145.124869,6.10023913 145.107553,5.89867391 145.107553,5.68017391 C144.721544,6.3773913 144.137039,6.44471739 143.776369,6.44471739 C142.788117,6.44471739 142.255981,5.89867391 142.255981,5.20104348 C142.255981,4.86523913 142.375922,4.32745652 143.011529,3.96645652 C143.475248,3.71408696 144.163223,3.6888913 144.506578,3.6888913 C144.712675,3.6888913 144.841485,3.69756522 145.090238,3.71408696 C145.090238,3.19323913 145.090238,2.96647826 144.936087,2.78143478 C144.772646,2.5716087 144.420422,2.50428261 144.188985,2.50428261 C143.373044,2.50428261 143.329121,3.05032609 143.321097,3.21843478 L142.513602,3.21843478 C142.538942,2.99993478 142.565549,2.70584783 142.814723,2.42043478 C143.14034,2.06769565 143.750607,1.96691304 144.206301,1.96691304 C144.833039,1.96691304 145.502854,2.15980435 145.734714,2.58854348 C145.872393,2.8405 145.880417,3.04206522 145.880417,3.23536957 L145.846631,5.25143478 C145.846631,5.31876087 145.855078,5.88173913 145.915049,6.31006522 L145.185262,6.31006522 Z" id="Fill-41"></path>
                        <path d="M149.985888,2.96647826 C149.814422,2.74797826 149.49683,2.53815217 149.041558,2.53815217 C147.856078,2.53815217 147.856078,3.94084783 147.856078,4.22667391 C147.856078,4.97428261 148.053306,5.8396087 149.041558,5.8396087 C150.312772,5.8396087 150.312772,4.47036957 150.312772,4.14282609 C150.312772,3.52945652 150.166646,3.19323913 149.985888,2.96647826 Z M150.28701,0.252782609 L151.094505,0.252782609 L151.094505,5.63804348 C151.094505,5.73056522 151.11182,6.09197826 151.128291,6.31006522 L150.320796,6.31006522 L150.304325,5.63804348 C150.235063,5.75576087 150.140883,5.93213043 149.917471,6.08330435 C149.565248,6.31873913 149.144607,6.39432609 148.852777,6.39432609 C148.276718,6.39432609 146.996636,6.10023913 146.996636,4.25186957 C146.996636,2.64719565 147.932942,1.94997826 148.946534,1.94997826 C149.874393,1.94997826 150.183961,2.48734783 150.28701,2.66413043 L150.28701,0.252782609 Z" id="Fill-42"></path>
                        <path d="M155.311471,3.78967391 C155.319495,3.38654348 155.241786,2.54641304 154.24551,2.54641304 C153.72182,2.54641304 153.085791,2.85702174 153.068476,3.78967391 L155.311471,3.78967391 Z M153.034689,4.3443913 C153.017374,5.21797826 153.386913,5.86480435 154.271272,5.86480435 C154.795806,5.86480435 155.216447,5.59591304 155.284864,4.99121739 L156.092359,4.99121739 C156.067019,5.20104348 156.032388,5.54552174 155.72282,5.87347826 C155.534039,6.08330435 155.104951,6.43645652 154.237485,6.43645652 C152.879694,6.43645652 152.235218,5.61284783 152.235218,4.27706522 C152.235218,3.44519565 152.407951,2.75623913 153.085791,2.29445652 C153.498408,2.00863043 154.01365,1.98343478 154.262825,1.98343478 C156.195408,1.98343478 156.152752,3.65543478 156.135437,4.3443913 L153.034689,4.3443913 Z" id="Fill-43"></path>
                        <path d="M157.181126,2.65586957 L157.163811,2.0928913 L157.980597,2.0928913 L157.980597,2.70584783 C158.392791,2.0425 158.976874,1.98343478 159.346413,1.98343478 C160.300034,1.98343478 160.600311,2.46215217 160.755306,2.77317391 C160.901432,2.53815217 161.253655,1.98343478 162.207277,1.98343478 C162.825146,1.98343478 163.787636,2.23580435 163.787636,3.47906522 L163.787636,6.31006522 L162.97085,6.31006522 L162.97085,3.60504348 C162.97085,3.23536957 162.902432,3.07552174 162.825146,2.96647826 C162.687888,2.77317391 162.412529,2.59680435 162.000757,2.59680435 C161.476223,2.59680435 161.193262,2.8908913 161.081345,3.04206522 C160.892141,3.30269565 160.892141,3.76447826 160.892141,3.94952174 L160.892141,6.31006522 L160.076621,6.31006522 L160.076621,3.52078261 C160.076621,2.99993478 159.767053,2.59680435 159.131024,2.59680435 C158.581995,2.59680435 158.280874,2.93302174 158.186694,3.059 C158.005937,3.30269565 157.997913,3.64717391 157.997913,3.91565217 L157.997913,6.31006522 L157.181126,6.31006522 L157.181126,2.65586957" id="Fill-44"></path>
                        <path d="M165.202019,6.31006522 L166.009937,6.31006522 L166.009937,2.0928913 L165.202019,2.0928913 L165.202019,6.31006522 Z M165.115442,1.12636957 L166.086379,1.12636957 L166.086379,0.261043478 L165.115442,0.261043478 L165.115442,1.12636957 Z" id="Fill-45"></path>
                        <path d="M168.113141,5.05854348 C168.105117,5.37782609 168.276583,5.82308696 169.058316,5.82308696 C169.393223,5.82308696 169.642398,5.76402174 169.813864,5.55419565 C169.900019,5.44473913 169.951966,5.30182609 169.951966,5.15932609 C169.951966,4.74752174 169.650845,4.67193478 169.006369,4.52902174 C168.105117,4.32745652 167.348301,4.15108696 167.348301,3.26882609 C167.348301,2.49602174 168.035432,1.9921087 169.032131,1.9921087 C169.573136,1.9921087 170.329529,2.14328261 170.586728,2.64719565 C170.699068,2.88221739 170.699068,3.08419565 170.699068,3.26056522 L169.874257,3.26056522 C169.900019,2.622 169.333252,2.5716087 169.041,2.5716087 C168.920636,2.5716087 168.165087,2.5716087 168.165087,3.17630435 C168.165087,3.56291304 168.551097,3.65543478 168.77451,3.71408696 C169.968437,3.99165217 170.226481,4.05856522 170.48368,4.294 C170.72483,4.5125 170.810563,4.80658696 170.810563,5.07547826 C170.810563,5.54552174 170.544073,5.94906522 170.226481,6.14236957 C169.848495,6.36913043 169.393223,6.42778261 168.946398,6.42778261 C168.070063,6.42778261 167.254544,6.07504348 167.262568,5.05854348 L168.113141,5.05854348" id="Fill-46"></path>
                        <path d="M174.573524,3.44519565 C174.556209,3.25230435 174.495816,2.56334783 173.714927,2.56334783 C172.597864,2.56334783 172.597864,3.83180435 172.597864,4.15108696 C172.597864,5.01641304 172.812408,5.82308696 173.67185,5.82308696 C174.358981,5.82308696 174.59084,5.31876087 174.608155,4.90695652 L175.424097,4.90695652 C175.372573,5.73056522 174.74499,6.41952174 173.680296,6.41952174 C173.388044,6.41952174 172.718228,6.36045652 172.262956,5.87347826 C172.004913,5.5793913 171.747714,5.13413043 171.747714,4.26013043 C171.747714,2.50428261 172.847039,1.98343478 173.705636,1.98343478 C173.989442,1.98343478 174.633495,2.0425 175.028796,2.50428261 C175.346388,2.86569565 175.372573,3.21017391 175.389466,3.44519565 L174.573524,3.44519565" id="Fill-47"></path>
                        <path d="M176.576214,0.252782609 L177.392155,0.252782609 L177.392155,2.71452174 C177.658646,2.26926087 178.191204,2.01730435 178.792602,2.01730435 C179.247029,2.01730435 179.900374,2.17673913 180.149549,2.68932609 C180.235282,2.85702174 180.295675,3.059 180.295675,3.67236957 L180.295675,6.31006522 L179.470864,6.31006522 L179.470864,3.81486957 C179.470864,3.43693478 179.470864,2.622 178.543427,2.622 C177.942029,2.622 177.64133,2.98341304 177.529835,3.18497826 C177.392155,3.42 177.392155,3.81486957 177.392155,4.0755 L177.392155,6.31006522 L176.576214,6.31006522 L176.576214,0.252782609" id="Fill-48"></path>
                        <path d="M184.665524,3.78967391 C184.673971,3.38654348 184.596262,2.54641304 183.599985,2.54641304 C183.076296,2.54641304 182.440267,2.85702174 182.422951,3.78967391 L184.665524,3.78967391 Z M182.389165,4.3443913 C182.37185,5.21797826 182.741388,5.86480435 183.625748,5.86480435 C184.150282,5.86480435 184.570922,5.59591304 184.63934,4.99121739 L185.446835,4.99121739 C185.421073,5.20104348 185.386442,5.54552174 185.077296,5.87347826 C184.888515,6.08330435 184.459427,6.43645652 183.591539,6.43645652 C182.23417,6.43645652 181.589694,5.61284783 181.589694,4.27706522 C181.589694,3.44519565 181.762005,2.75623913 182.440267,2.29445652 C182.852461,2.00863043 183.368126,1.98343478 183.617301,1.98343478 C185.549883,1.98343478 185.507228,3.65543478 185.489913,4.3443913 L182.389165,4.3443913 Z" id="Fill-49"></path>
                        <path d="M186.67835,2.94954348 C186.67835,2.66413043 186.661034,2.37004348 186.635272,2.0928913 L187.452058,2.0928913 L187.468529,2.90782609 C187.623524,2.31965217 188.139189,2.12634783 188.499859,2.07595652 C188.740587,2.0425 188.9205,2.05076087 189.05818,2.05902174 L189.05818,2.83182609 C189.015102,2.81530435 188.963155,2.80663043 188.904029,2.79836957 C188.843636,2.7901087 188.765927,2.7901087 188.671325,2.7901087 C187.717704,2.7901087 187.495136,3.34441304 187.495136,4.06723913 L187.495136,6.31006522 L186.67835,6.31006522 L186.67835,2.94954348" id="Fill-50"></path>
                        <path d="M194.20934,4.05030435 L196.554539,4.05030435 L195.412136,1.07597826 L194.20934,4.05030435 Z M194.991495,0.244521739 L195.910063,0.244521739 L198.418704,6.31006522 L197.482398,6.31006522 L196.812583,4.731 L193.934825,4.731 L193.26501,6.31006522 L192.379806,6.31006522 L194.991495,0.244521739 Z" id="Fill-51"></path>
                        <path d="M200.03116,2.0928913 L200.03116,4.80658696 C200.03116,5.21797826 200.12534,5.73882609 200.95015,5.73882609 C201.35432,5.73882609 201.732306,5.60458696 201.963743,5.26836957 C202.1445,5.01641304 202.1445,4.68886957 202.1445,4.47863043 L202.1445,2.0928913 L202.977757,2.0928913 L202.977757,5.52032609 C202.977757,5.60458696 202.995073,6.07504348 203.003097,6.31006522 L202.160971,6.31006522 L202.1445,5.58765217 C201.989505,5.88173913 201.697675,6.35219565 200.769393,6.35219565 C199.704699,6.35219565 199.20635,5.75576087 199.20635,4.9238913 L199.20635,2.0928913 L200.03116,2.0928913" id="Fill-52"></path>
                        <path d="M204.972,5.05854348 C204.963131,5.37782609 205.134597,5.82308696 205.916752,5.82308696 C206.25166,5.82308696 206.500835,5.76402174 206.673146,5.55419565 C206.758879,5.44473913 206.809981,5.30182609 206.809981,5.15932609 C206.809981,4.74752174 206.509704,4.67193478 205.86565,4.52902174 C204.963131,4.32745652 204.207583,4.15108696 204.207583,3.26882609 C204.207583,2.49602174 204.894714,1.9921087 205.89099,1.9921087 C206.431995,1.9921087 207.187966,2.14328261 207.44601,2.64719565 C207.557505,2.88221739 207.557505,3.08419565 207.557505,3.26056522 L206.732272,3.26056522 C206.758879,2.622 206.191267,2.5716087 205.899437,2.5716087 C205.779073,2.5716087 205.023524,2.5716087 205.023524,3.17630435 C205.023524,3.56291304 205.410379,3.65543478 205.632947,3.71408696 C206.827296,3.99165217 207.084495,4.05856522 207.342961,4.294 C207.582845,4.5125 207.669422,4.80658696 207.669422,5.07547826 C207.669422,5.54552174 207.402932,5.94906522 207.084495,6.14236957 C206.706932,6.36913043 206.25166,6.42778261 205.805257,6.42778261 C204.9285,6.42778261 204.112558,6.07504348 204.12185,5.05854348 L204.972,5.05854348" id="Fill-53"></path>
                        <path d="M208.639515,2.07595652 L209.404354,2.07595652 L209.404354,1.19369565 L210.202558,0.94173913 L210.202558,2.07595652 L211.165049,2.07595652 L211.165049,2.65586957 L210.202558,2.65586957 L210.202558,5.18452174 C210.202558,5.39434783 210.202558,5.74708696 210.778194,5.74708696 C210.941636,5.74708696 211.095786,5.72230435 211.165049,5.70536957 L211.165049,6.31873913 C211.019345,6.34393478 210.786641,6.36913043 210.494811,6.36913043 C209.756578,6.36913043 209.404354,6.1588913 209.404354,5.46993478 L209.404354,2.65586957 L208.639515,2.65586957 L208.639515,2.07595652" id="Fill-54"></path>
                        <path d="M214.429238,4.23493478 C214.102777,4.23493478 212.874218,4.23493478 212.874218,5.092 C212.874218,5.3608913 213.046107,5.82308696 213.767869,5.82308696 C214.180063,5.82308696 214.489631,5.66323913 214.686437,5.36956522 C214.867194,5.08373913 214.876485,4.84830435 214.892956,4.26013043 C214.74683,4.2436087 214.627311,4.23493478 214.429238,4.23493478 Z M214.987558,6.31006522 C214.927587,6.10023913 214.910272,5.89867391 214.910272,5.68017391 C214.524262,6.3773913 213.939335,6.44471739 213.578665,6.44471739 C212.590413,6.44471739 212.058699,5.89867391 212.058699,5.20104348 C212.058699,4.86523913 212.178218,4.32745652 212.814248,3.96645652 C213.277544,3.71408696 213.965519,3.6888913 214.308874,3.6888913 C214.514971,3.6888913 214.643782,3.69756522 214.892956,3.71408696 C214.892956,3.19323913 214.892956,2.96647826 214.738383,2.78143478 C214.575364,2.5716087 214.223141,2.50428261 213.991282,2.50428261 C213.17534,2.50428261 213.13184,3.05032609 213.123393,3.21843478 L212.315898,3.21843478 C212.34166,2.99993478 212.367845,2.70584783 212.617019,2.42043478 C212.942636,2.06769565 213.553325,1.96691304 214.008597,1.96691304 C214.635335,1.96691304 215.30515,2.15980435 215.53701,2.58854348 C215.674689,2.8405 215.683136,3.04206522 215.683136,3.23536957 L215.64935,5.25143478 C215.64935,5.31876087 215.657374,5.88173913 215.717767,6.31006522 L214.987558,6.31006522 Z" id="Fill-55"></path>
                        <path d="M217.807879,2.0928913 L217.807879,4.80658696 C217.807879,5.21797826 217.902058,5.73882609 218.726869,5.73882609 C219.131039,5.73882609 219.508602,5.60458696 219.740461,5.26836957 C219.921218,5.01641304 219.921218,4.68886957 219.921218,4.47863043 L219.921218,2.0928913 L220.754476,2.0928913 L220.754476,5.52032609 C220.754476,5.60458696 220.771791,6.07504348 220.779816,6.31006522 L219.937689,6.31006522 L219.921218,5.58765217 C219.766223,5.88173913 219.473971,6.35219565 218.546112,6.35219565 C217.481417,6.35219565 216.983068,5.75576087 216.983068,4.9238913 L216.983068,2.0928913 L217.807879,2.0928913" id="Fill-56"></path>
                        <path d="M222.868238,5.05854348 C222.859369,5.37782609 223.030835,5.82308696 223.81299,5.82308696 C224.147898,5.82308696 224.397073,5.76402174 224.569383,5.55419565 C224.655117,5.44473913 224.706218,5.30182609 224.706218,5.15932609 C224.706218,4.74752174 224.405942,4.67193478 223.761888,4.52902174 C222.859369,4.32745652 222.10382,4.15108696 222.10382,3.26882609 C222.10382,2.49602174 222.790951,1.9921087 223.787228,1.9921087 C224.328233,1.9921087 225.084204,2.14328261 225.342248,2.64719565 C225.453743,2.88221739 225.453743,3.08419565 225.453743,3.26056522 L224.62851,3.26056522 C224.655117,2.622 224.087505,2.5716087 223.795675,2.5716087 C223.675311,2.5716087 222.919762,2.5716087 222.919762,3.17630435 C222.919762,3.56291304 223.306617,3.65543478 223.529184,3.71408696 C224.723534,3.99165217 224.980733,4.05856522 225.239199,4.294 C225.479083,4.5125 225.56566,4.80658696 225.56566,5.07547826 C225.56566,5.54552174 225.29917,5.94906522 224.980733,6.14236957 C224.60317,6.36913043 224.147898,6.42778261 223.701495,6.42778261 C222.824738,6.42778261 222.008796,6.07504348 222.018087,5.05854348 L222.868238,5.05854348" id="Fill-57"></path>
                        <path d="M229.448563,3.44519565 C229.430825,3.25230435 229.370854,2.56334783 228.588699,2.56334783 C227.472058,2.56334783 227.472058,3.83180435 227.472058,4.15108696 C227.472058,5.01641304 227.687447,5.82308696 228.546044,5.82308696 C229.233175,5.82308696 229.465034,5.31876087 229.48235,4.90695652 L230.298714,4.90695652 C230.246767,5.73056522 229.620029,6.41952174 228.554913,6.41952174 C228.262238,6.41952174 227.592422,6.36045652 227.13715,5.87347826 C226.879529,5.5793913 226.621485,5.13413043 226.621485,4.26013043 C226.621485,2.50428261 227.721233,1.98343478 228.580675,1.98343478 C228.863636,1.98343478 229.508534,2.0425 229.903835,2.50428261 C230.221427,2.86569565 230.246767,3.21017391 230.264083,3.44519565 L229.448563,3.44519565" id="Fill-58"></path>
                        <path d="M231.450408,0.252782609 L232.266772,0.252782609 L232.266772,2.71452174 C232.532417,2.26926087 233.065398,2.01730435 233.666796,2.01730435 C234.122068,2.01730435 234.774568,2.17673913 235.023743,2.68932609 C235.11032,2.85702174 235.169447,3.059 235.169447,3.67236957 L235.169447,6.31006522 L234.345481,6.31006522 L234.345481,3.81486957 C234.345481,3.43693478 234.345481,2.622 233.417621,2.622 C232.816223,2.622 232.515947,2.98341304 232.404029,3.18497826 C232.266772,3.42 232.266772,3.81486957 232.266772,4.0755 L232.266772,6.31006522 L231.450408,6.31006522 L231.450408,0.252782609" id="Fill-59"></path>
                        <path d="M239.326019,2.96647826 C239.154553,2.74797826 238.836117,2.53815217 238.380845,2.53815217 C237.195364,2.53815217 237.195364,3.94084783 237.195364,4.22667391 C237.195364,4.97428261 237.393437,5.8396087 238.380845,5.8396087 C239.652903,5.8396087 239.652903,4.47036957 239.652903,4.14282609 C239.652903,3.52945652 239.505932,3.19323913 239.326019,2.96647826 Z M239.626296,0.252782609 L240.433791,0.252782609 L240.433791,5.63804348 C240.433791,5.73056522 240.451107,6.09197826 240.468422,6.31006522 L239.660927,6.31006522 L239.643612,5.63804348 C239.575194,5.75576087 239.48017,5.93213043 239.256757,6.08330435 C238.905379,6.31873913 238.483893,6.39432609 238.192063,6.39432609 C237.616005,6.39432609 236.336767,6.10023913 236.336767,4.25186957 C236.336767,2.64719565 237.273073,1.94997826 238.286665,1.94997826 C239.214102,1.94997826 239.523248,2.48734783 239.626296,2.66413043 L239.626296,0.252782609 Z" id="Fill-60"></path>
                        <path d="M241.832126,6.31006522 L242.639621,6.31006522 L242.639621,2.0928913 L241.832126,2.0928913 L241.832126,6.31006522 Z M241.746393,1.12636957 L242.716908,1.12636957 L242.716908,0.261043478 L241.746393,0.261043478 L241.746393,1.12636957 Z" id="Fill-61"></path>
                        <path d="M247.017917,3.78967391 C247.026364,3.38654348 246.9495,2.54641304 245.953223,2.54641304 C245.428267,2.54641304 244.793083,2.85702174 244.775767,3.78967391 L247.017917,3.78967391 Z M244.741136,4.3443913 C244.72382,5.21797826 245.093359,5.86480435 245.978563,5.86480435 C246.502252,5.86480435 246.922893,5.59591304 246.992578,4.99121739 L247.800073,4.99121739 C247.773466,5.20104348 247.73968,5.54552174 247.430534,5.87347826 C247.24133,6.08330435 246.81182,6.43645652 245.943932,6.43645652 C244.586985,6.43645652 243.942932,5.61284783 243.942932,4.27706522 C243.942932,3.44519565 244.114398,2.75623913 244.793083,2.29445652 C245.205699,2.00863043 245.720519,1.98343478 245.970539,1.98343478 C247.903121,1.98343478 247.860044,3.65543478 247.842728,4.3443913 L244.741136,4.3443913 Z" id="Fill-62"></path>
                        <path d="M249.020607,2.58028261 L249.012583,2.0928913 L249.820078,2.0928913 L249.828102,2.77317391 C249.923126,2.59680435 250.232272,2.00863043 251.211655,2.00863043 C251.59851,2.00863043 252.774699,2.15154348 252.774699,3.44519565 L252.774699,6.31006522 L251.950733,6.31006522 L251.950733,3.63023913 C251.950733,3.35308696 251.916102,3.10071739 251.718029,2.90782609 C251.512777,2.71452174 251.228971,2.622 250.954034,2.622 C250.369529,2.622 249.828102,3.03380435 249.828102,3.88219565 L249.828102,6.31006522 L249.020607,6.31006522 L249.020607,2.58028261" id="Fill-63"></path>
                        <path d="M254.829335,5.05854348 C254.820466,5.37782609 254.991932,5.82308696 255.773665,5.82308696 C256.108573,5.82308696 256.357748,5.76402174 256.530481,5.55419565 C256.616214,5.44473913 256.667316,5.30182609 256.667316,5.15932609 C256.667316,4.74752174 256.367039,4.67193478 255.722563,4.52902174 C254.820466,4.32745652 254.064917,4.15108696 254.064917,3.26882609 C254.064917,2.49602174 254.752049,1.9921087 255.748325,1.9921087 C256.28933,1.9921087 257.044879,2.14328261 257.303345,2.64719565 C257.414417,2.88221739 257.414417,3.08419565 257.414417,3.26056522 L256.589607,3.26056522 C256.616214,2.622 256.048602,2.5716087 255.75635,2.5716087 C255.635985,2.5716087 254.880437,2.5716087 254.880437,3.17630435 C254.880437,3.56291304 255.267291,3.65543478 255.490282,3.71408696 C256.684631,3.99165217 256.94183,4.05856522 257.199874,4.294 C257.44018,4.5125 257.526757,4.80658696 257.526757,5.07547826 C257.526757,5.54552174 257.260267,5.94906522 256.94183,6.14236957 C256.564267,6.36913043 256.108573,6.42778261 255.662592,6.42778261 C254.785835,6.42778261 253.969893,6.07504348 253.978762,5.05854348 L254.829335,5.05854348" id="Fill-64"></path>
                        <path d="M258.257388,2.07595652 L259.022228,2.07595652 L259.022228,1.19369565 L259.820854,0.94173913 L259.820854,2.07595652 L260.783345,2.07595652 L260.783345,2.65586957 L259.820854,2.65586957 L259.820854,5.18452174 C259.820854,5.39434783 259.820854,5.74708696 260.39649,5.74708696 C260.559932,5.74708696 260.714083,5.72230435 260.783345,5.70536957 L260.783345,6.31873913 C260.637218,6.34393478 260.404515,6.36913043 260.112684,6.36913043 C259.374451,6.36913043 259.022228,6.1588913 259.022228,5.46993478 L259.022228,2.65586957 L258.257388,2.65586957 L258.257388,2.07595652" id="Fill-65"></path>
                        <path d="M3.50491748,14.3222826 L5.93416019,14.3222826 C9.54381553,14.3222826 11.348432,12.407 11.348432,8.57726087 C11.348432,6.78093478 10.8973835,5.38567391 9.99486408,4.39271739 C9.0437767,3.34482609 7.66233495,2.82108696 5.84969417,2.82108696 L3.50491748,2.82108696 L3.50491748,14.3222826 Z M0,16.8988478 L0,0.243695652 L6.75601456,0.243695652 C9.35038835,0.243695652 11.3568786,1.00823913 12.7746408,2.53691304 C14.1366553,4.00280435 14.8174515,6.0163913 14.8174515,8.57726087 C14.8174515,11.4218913 13.9432282,13.5503043 12.1947816,14.9604348 C10.5911942,16.2528478 8.30681068,16.8988478 5.34163107,16.8988478 L0,16.8988478 Z" id="Fill-66"></path>
                        <path d="M23.5305437,2.89171739 L20.8229854,10.7758913 L26.2617524,10.7758913 L23.5305437,2.89171739 Z M14.9977864,16.8988478 L21.3306262,0.243695652 L25.8145049,0.243695652 L32.1355194,16.8988478 L28.364534,16.8988478 L27.1435777,13.3524565 L19.9407379,13.3524565 L18.7320291,16.8988478 L14.9977864,16.8988478 Z" id="Fill-67"></path>
                        <path d="M41.7920971,2.89171739 L39.0845388,10.7758913 L44.5233058,10.7758913 L41.7920971,2.89171739 Z M33.2593398,16.8988478 L39.5921796,0.243695652 L44.0760583,0.243695652 L50.3970728,16.8988478 L46.6260874,16.8988478 L45.4055534,13.3524565 L38.2022913,13.3524565 L36.9940049,16.8988478 L33.2593398,16.8988478 Z" id="Fill-68"></path>
                        <path d="M55.727301,14.3222826 L58.1565437,14.3222826 C61.766199,14.3222826 63.5708155,12.407 63.5708155,8.57726087 C63.5708155,6.78093478 63.119767,5.38567391 62.2172476,4.39271739 C61.2661602,3.34482609 59.8847184,2.82108696 58.0720777,2.82108696 L55.727301,2.82108696 L55.727301,14.3222826 Z M52.2223835,16.8988478 L52.2223835,0.243695652 L58.9783981,0.243695652 C61.5727718,0.243695652 63.5792621,1.00823913 64.9970243,2.53691304 C66.3590388,4.00280435 67.039835,6.0163913 67.039835,8.57726087 C67.039835,11.4218913 66.1656117,13.5503043 64.417165,14.9604348 C62.8135777,16.2528478 60.5291942,16.8988478 57.5644369,16.8988478 L52.2223835,16.8988478 Z" id="Fill-69"></path>
                    </g>
                </g>
                <path d="M3.9453125,10.4775391 C3.59374824,10.8909526 3.07780288,11.0976562 2.39746094,11.0976562 C1.83430708,11.0976562 1.40543767,10.9340837 1.11083984,10.6069336 C0.816242017,10.2797835 0.667317725,9.79557612 0.6640625,9.15429688 L0.6640625,5.71679688 L1.56738281,5.71679688 L1.56738281,9.12988281 C1.56738281,9.93066807 1.89290039,10.3310547 2.54394531,10.3310547 C3.23405293,10.3310547 3.69303271,10.0738958 3.92089844,9.55957031 L3.92089844,5.71679688 L4.82421875,5.71679688 L4.82421875,11 L3.96484375,11 L3.9453125,10.4775391 Z M7.05078125,5.71679688 L7.08007812,6.38085938 C7.48372598,5.87304434 8.01106445,5.61914062 8.66210938,5.61914062 C9.77865142,5.61914062 10.3417968,6.24901714 10.3515625,7.50878906 L10.3515625,11 L9.44824219,11 L9.44824219,7.50390625 C9.44498696,7.12304497 9.35791101,6.84147227 9.18701172,6.65917969 C9.01611243,6.47688711 8.75000181,6.38574219 8.38867188,6.38574219 C8.09570166,6.38574219 7.83854277,6.46386641 7.6171875,6.62011719 C7.39583223,6.77636797 7.22330791,6.98144404 7.09960938,7.23535156 L7.09960938,11 L6.19628906,11 L6.19628906,5.71679688 L7.05078125,5.71679688 Z M11.4941406,8.31445312 C11.4941406,7.5039022 11.686196,6.85205325 12.0703125,6.35888672 C12.454429,5.86572019 12.9573537,5.61914062 13.5791016,5.61914062 C14.1975942,5.61914062 14.6874982,5.83072705 15.0488281,6.25390625 L15.0488281,3.5 L15.9521484,3.5 L15.9521484,11 L15.1220703,11 L15.078125,10.4335938 C14.7167951,10.8763043 14.2138704,11.0976562 13.5693359,11.0976562 C12.9573537,11.0976562 12.458498,10.8470077 12.0727539,10.3457031 C11.6870098,9.84439854 11.4941406,9.1901082 11.4941406,8.3828125 L11.4941406,8.31445312 Z M12.3974609,8.41699219 C12.3974609,9.01595352 12.5211576,9.48469883 12.7685547,9.82324219 C13.0159518,10.1617855 13.3577452,10.3310547 13.7939453,10.3310547 C14.3668648,10.3310547 14.7851549,10.0738958 15.0488281,9.55957031 L15.0488281,7.1328125 C14.7786445,6.63476313 14.3636096,6.38574219 13.8037109,6.38574219 C13.3610004,6.38574219 13.0159518,6.55663892 12.7685547,6.8984375 C12.5211576,7.24023608 12.3974609,7.74641592 12.3974609,8.41699219 Z" id="und" fill="#333333"></path>
            </g>
        </g>
    </g>
</svg>