<?xml version="1.0" encoding="utf-8"?>
<!-- Generator: Adobe Illustrator 22.0.1, SVG Export Plug-In . SVG Version: 6.00 Build 0)  -->
<svg version="1.1" id="Ebene_1" xmlns="http://www.w3.org/2000/svg" xmlns:xlink="http://www.w3.org/1999/xlink" x="0px" y="0px"
	 viewBox="0 0 1000 1000" style="enable-background:new 0 0 1000 1000;" xml:space="preserve">
<style type="text/css">
	.st0{fill:#AF001B;}
</style>
<path class="st0" d="M499.2,149C306.6,149,148,307.6,148,500.2c0,192.6,158.6,351.2,351.2,351.2s351.2-158.6,351.2-351.2
	S691.8,149,499.2,149z M185.8,500.2c0-173.7,139.7-313.4,313.4-313.4s313.4,139.7,313.4,313.4c0,3.8,0,3.8,0,7.6H495.4v305.9
	C325.5,809.9,185.8,673.9,185.8,500.2z M959.9,500.2c0-253-207.7-460.7-460.7-460.7S38.5,247.2,38.5,500.2s207.7,460.7,460.7,460.7
	C756,960.9,959.9,757,959.9,500.2z M499.2,923.1c-234.1,0-422.9-188.8-422.9-422.9S265.1,77.3,499.2,77.3s422.9,188.8,422.9,422.9
	C922.1,734.3,733.3,923.1,499.2,923.1z"/>
</svg>
