<?xml version="1.0" encoding="utf-8"?>
<!-- Generator: Adobe Illustrator 22.0.1, SVG Export Plug-In . SVG Version: 6.00 Build 0)  -->
<svg version="1.1" id="Ebene_1" xmlns="http://www.w3.org/2000/svg" xmlns:xlink="http://www.w3.org/1999/xlink" x="0px" y="0px"
	 viewBox="0 0 1000 1000" style="enable-background:new 0 0 1000 1000;" xml:space="preserve">
<style type="text/css">
	.st0{fill-rule:evenodd;clip-rule:evenodd;fill:#AF001B;}
</style>
<path class="st0" d="M968,684.1v167.1c0,13.9-4.9,25.8-14.6,35.5s-21.6,14.6-35.5,14.6H750.7c-13.9,0-25.8-4.9-35.5-14.6
	s-14.6-21.6-14.6-35.5V684.1c0-13.9,4.9-25.8,14.6-35.5s21.6-14.6,35.5-14.6h50.1V533.7H533.4V634h50.1c13.9,0,25.8,4.9,35.5,14.6
	s14.6,21.6,14.6,35.5v167.1c0,13.9-4.9,25.8-14.6,35.5s-21.6,14.6-35.5,14.6H416.4c-13.9,0-25.8-4.9-35.5-14.6s-14.6-21.6-14.6-35.5
	V684.1c0-13.9,4.9-25.8,14.6-35.5s21.6-14.6,35.5-14.6h50.1V533.7H199.1V634h50.1c13.9,0,25.8,4.9,35.5,14.6
	c9.8,9.8,14.6,21.6,14.6,35.5v167.1c0,13.9-4.9,25.8-14.6,35.5c-9.7,9.8-21.6,14.6-35.5,14.6H82.1c-13.9,0-25.8-4.9-35.5-14.6
	S32,865.2,32,851.3V684.1c0-13.9,4.9-25.8,14.6-35.5S68.2,634,82.1,634h50.1V533.7c0-18.1,6.6-33.8,19.8-47s28.9-19.8,47-19.8h267.4
	V366.6h-50.1c-13.9,0-25.8-4.9-35.5-14.6c-9.8-9.7-14.6-21.6-14.6-35.5V149.3c0-13.9,4.9-25.8,14.6-35.5s21.6-14.6,35.5-14.6h167.1
	c13.9,0,25.8,4.9,35.5,14.6s14.6,21.6,14.6,35.5v167.1c0,13.9-4.9,25.8-14.6,35.5c-9.8,9.8-21.6,14.6-35.5,14.6h-50.1v100.3h267.4
	c18.1,0,33.8,6.6,47,19.8c13.2,13.2,19.8,28.9,19.8,47V634h50.1c13.9,0,25.8,4.9,35.5,14.6S968,670.2,968,684.1z"/>
</svg>
