<?xml version="1.0" encoding="UTF-8" standalone="no"?>
<svg width="14px" height="21px" viewBox="0 0 14 21" version="1.1" xmlns="http://www.w3.org/2000/svg" xmlns:xlink="http://www.w3.org/1999/xlink">
    <!-- Generator: Sketch 50.2 (55047) - http://www.bohemiancoding.com/sketch -->
    <title></title>
    <desc>Created with Sketch.</desc>
    <defs></defs>
    <g id="Symbols" stroke="none" stroke-width="1" fill="none" fill-rule="evenodd">
        <g id="Artboard" transform="translate(-264.000000, -162.000000)" fill="#D0011B">
            <path d="M274.285714,169 C274.285714,168.053567 273.950896,167.245539 273.28125,166.575893 C272.611604,165.906247 271.803576,165.571429 270.857143,165.571429 C269.91071,165.571429 269.102682,165.906247 268.433036,166.575893 C267.76339,167.245539 267.428571,168.053567 267.428571,169 C267.428571,169.946433 267.76339,170.754461 268.433036,171.424107 C269.102682,172.093753 269.91071,172.428571 270.857143,172.428571 C271.803576,172.428571 272.611604,172.093753 273.28125,171.424107 C273.950896,170.754461 274.285714,169.946433 274.285714,169 Z M277.714286,169 C277.714286,169.973219 277.566966,170.772318 277.272321,171.397321 L272.397321,181.763393 C272.254464,182.058037 272.042412,182.290178 271.761161,182.459821 C271.479909,182.629465 271.178573,182.714286 270.857143,182.714286 C270.535713,182.714286 270.234376,182.629465 269.953125,182.459821 C269.671874,182.290178 269.464286,182.058037 269.330357,181.763393 L264.441964,171.397321 C264.14732,170.772318 264,169.973219 264,169 C264,167.107133 264.669636,165.491078 266.008929,164.151786 C267.348221,162.812493 268.964276,162.142857 270.857143,162.142857 C272.750009,162.142857 274.366065,162.812493 275.705357,164.151786 C277.04465,165.491078 277.714286,167.107133 277.714286,169 Z" id=""></path>
        </g>
    </g>
</svg>